<?xml version="1.0" encoding="UTF-8"?>
<svg version="1.1" xmlns="http://www.w3.org/2000/svg" width="152" height="152">
<path d="M0 0 C1.40881943 -0.00856522 1.40881943 -0.00856522 2.84609985 -0.01730347 C3.8695752 -0.01842133 4.89305054 -0.01953918 5.94754028 -0.02069092 C7.57255966 -0.02813828 7.57255966 -0.02813828 9.23040771 -0.03573608 C12.81597528 -0.05034712 16.40149862 -0.05715751 19.98709106 -0.06268311 C22.47806805 -0.06843483 24.96904502 -0.07419256 27.46002197 -0.07995605 C32.68372809 -0.09046262 37.90741883 -0.09630775 43.13113403 -0.09979248 C48.49512849 -0.10355979 53.85898576 -0.11765638 59.22293091 -0.14080811 C65.69848265 -0.16832749 72.17390082 -0.18119999 78.64950943 -0.18312836 C81.11746457 -0.18615615 83.58541882 -0.19418888 86.05334091 -0.20731354 C89.50521073 -0.22436252 92.95658298 -0.22249645 96.40847778 -0.21600342 C97.9376181 -0.22982559 97.9376181 -0.22982559 99.49765015 -0.243927 C104.83051791 -0.212494 108.75140544 0.03597513 113.30740356 3.14044189 C115.33861064 6.1872525 115.55400231 6.74162513 115.50271606 10.15216064 C115.4930481 11.28814697 115.4930481 11.28814697 115.48318481 12.44708252 C115.4580481 13.62560791 115.4580481 13.62560791 115.43240356 14.82794189 C115.42338013 15.62522705 115.41435669 16.42251221 115.40505981 17.24395752 C115.38151941 19.2095809 115.34564904 21.17504964 115.30740356 23.14044189 C116.37990356 23.09919189 117.45240356 23.05794189 118.55740356 23.01544189 C122.08463844 23.13301639 123.36847656 23.48892097 126.30740356 25.14044189 C126.38153877 30.21243078 126.43599807 35.28410458 126.47219849 40.35650635 C126.48728873 42.08214817 126.50776332 43.80775161 126.53372192 45.53326416 C126.57009565 48.01309677 126.58712715 50.49242253 126.60037231 52.97247314 C126.6235981 54.13043144 126.6235981 54.13043144 126.64729309 55.31178284 C126.64895526 60.5971577 126.64895526 60.5971577 125.05081177 63.13922119 C121.88158122 64.95927643 118.88768073 64.3165211 115.30740356 64.14044189 C115.33060669 65.24903564 115.35380981 66.35762939 115.37771606 67.49981689 C115.39647933 68.96335181 115.41467894 70.42689403 115.43240356 71.89044189 C115.44916138 72.62005127 115.46591919 73.34966064 115.48318481 74.10137939 C115.54667717 81.08553883 115.54667717 81.08553883 113.30740356 84.14044189 C110.07369823 86.29624545 109.2139867 86.39115471 105.48709106 86.39440918 C104.49443237 86.40004883 103.50177368 86.40568848 102.47903442 86.41149902 C101.39114624 86.40745056 100.30325806 86.4034021 99.18240356 86.39923096 C98.03586304 86.4027356 96.88932251 86.40624023 95.70803833 86.40985107 C91.90776565 86.41867327 88.10767823 86.4128174 84.30740356 86.40606689 C81.67328862 86.4074134 79.03917391 86.40935381 76.40505981 86.41186523 C70.88029971 86.41550459 65.35559306 86.41070661 59.83084106 86.40118408 C53.44207983 86.39029956 47.05344625 86.39382516 40.66468811 86.40483689 C34.52067368 86.41500322 28.37671587 86.41393127 22.23269653 86.40807343 C19.61713646 86.4067364 17.00157314 86.40838647 14.38601685 86.41303253 C10.73472381 86.41809455 7.08367811 86.41039183 3.43240356 86.39923096 C2.34451538 86.40327942 1.2566272 86.40732788 0.13577271 86.41149902 C-0.85688599 86.40585938 -1.84954468 86.40021973 -2.87228394 86.39440918 C-3.73579468 86.39365513 -4.59930542 86.39290108 -5.48898315 86.39212418 C-7.69259644 86.14044189 -7.69259644 86.14044189 -10.69259644 84.14044189 C-10.69259644 83.15044189 -10.69259644 82.16044189 -10.69259644 81.14044189 C-11.35259644 81.14044189 -12.01259644 81.14044189 -12.69259644 81.14044189 C-12.78531769 71.44807448 -12.85637205 61.75585997 -12.89984512 52.06314564 C-12.92071114 47.56230302 -12.94901056 43.06176405 -12.99435425 38.56109619 C-13.03784751 34.21686002 -13.06174096 29.87291574 -13.07210541 25.52847862 C-13.07949057 23.87186781 -13.09391223 22.21527279 -13.11551666 20.55878639 C-13.14459795 18.23645254 -13.14855062 15.91532141 -13.146698 13.59283447 C-13.1610791 12.90950546 -13.17546021 12.22617645 -13.1902771 11.5221405 C-13.16069895 8.09058728 -12.72111465 6.18699895 -10.91421509 3.23716736 C-7.55068782 0.06272819 -4.49820696 0.01642913 0 0 Z M2.30740356 14.14044189 C2.30740356 33.28044189 2.30740356 52.42044189 2.30740356 72.14044189 C34.64740356 72.14044189 66.98740356 72.14044189 100.30740356 72.14044189 C100.30740356 53.00044189 100.30740356 33.86044189 100.30740356 14.14044189 C67.96740356 14.14044189 35.62740356 14.14044189 2.30740356 14.14044189 Z " fill="#EE6F08" transform="translate(19.692596435546875,32.85955810546875)"/>
<path d="M0 0 C1.226548 0.00303635 1.226548 0.00303635 2.47787476 0.00613403 C3.76315567 0.00350555 3.76315567 0.00350555 5.07440186 0.00082397 C7.9211527 -0.00359561 10.76784197 -0.00065618 13.61459351 0.00271606 C15.58375053 0.00204306 17.55290747 0.00107306 19.52206421 -0.00018311 C23.65480335 -0.00166022 27.78752093 0.00049492 31.92025757 0.00515747 C37.23033871 0.01085476 42.54036932 0.00757583 47.85044861 0.00158501 C51.91834904 -0.00202023 55.9862374 -0.00088219 60.05413818 0.0017128 C62.01265468 0.00238217 63.97117226 0.00155329 65.9296875 -0.00076675 C68.6619255 -0.00329267 71.39408047 0.00054645 74.12631226 0.00613403 C74.94401093 0.0041098 75.76170959 0.00208557 76.60418701 0 C82.18783105 0.02126611 82.18783105 0.02126611 83.30209351 1.13552856 C83.39513369 2.60907204 83.41955616 4.08703447 83.4156189 5.56350708 C83.41549805 6.51761475 83.4153772 7.47172241 83.41525269 8.45474243 C83.41013672 9.46444092 83.40502075 10.4741394 83.39974976 11.51443481 C83.39874268 12.43736328 83.3977356 13.36029175 83.396698 14.31118774 C83.39144845 17.77348058 83.37748731 21.23575576 83.36459351 24.69802856 C83.34396851 32.43240356 83.32334351 40.16677856 83.30209351 48.13552856 C53.60209351 48.13552856 23.90209351 48.13552856 -6.69790649 48.13552856 C-6.71853149 40.40115356 -6.73915649 32.66677856 -6.76040649 24.69802856 C-6.7695105 22.2534021 -6.7786145 19.80877563 -6.78799438 17.29006958 C-6.7909134 15.36485855 -6.79346199 13.43964691 -6.79556274 11.51443481 C-6.80067871 10.50473633 -6.80579468 9.49503784 -6.81106567 8.45474243 C-6.81118652 7.50063477 -6.81130737 6.5465271 -6.81143188 5.56350708 C-6.8136525 4.73077774 -6.81587311 3.8980484 -6.81816101 3.04008484 C-6.5556968 -1.11674744 -3.44504141 0.01312093 0 0 Z " fill="#ED6E05" transform="translate(32.697906494140625,51.864471435546875)"/>
<path d="M0 0 C1.40881943 -0.00856522 1.40881943 -0.00856522 2.84609985 -0.01730347 C3.8695752 -0.01842133 4.89305054 -0.01953918 5.94754028 -0.02069092 C7.57255966 -0.02813828 7.57255966 -0.02813828 9.23040771 -0.03573608 C12.81597528 -0.05034712 16.40149862 -0.05715751 19.98709106 -0.06268311 C22.47806805 -0.06843483 24.96904502 -0.07419256 27.46002197 -0.07995605 C32.68372809 -0.09046262 37.90741883 -0.09630775 43.13113403 -0.09979248 C48.49512849 -0.10355979 53.85898576 -0.11765638 59.22293091 -0.14080811 C65.69848265 -0.16832749 72.17390082 -0.18119999 78.64950943 -0.18312836 C81.11746457 -0.18615615 83.58541882 -0.19418888 86.05334091 -0.20731354 C89.50521073 -0.22436252 92.95658298 -0.22249645 96.40847778 -0.21600342 C97.9376181 -0.22982559 97.9376181 -0.22982559 99.49765015 -0.243927 C104.83051791 -0.212494 108.75140544 0.03597513 113.30740356 3.14044189 C115.33861064 6.1872525 115.55400231 6.74162513 115.50271606 10.15216064 C115.4930481 11.28814697 115.4930481 11.28814697 115.48318481 12.44708252 C115.4580481 13.62560791 115.4580481 13.62560791 115.43240356 14.82794189 C115.42338013 15.62522705 115.41435669 16.42251221 115.40505981 17.24395752 C115.38151941 19.2095809 115.34564904 21.17504964 115.30740356 23.14044189 C116.37990356 23.09919189 117.45240356 23.05794189 118.55740356 23.01544189 C122.08463844 23.13301639 123.36847656 23.48892097 126.30740356 25.14044189 C126.38153877 30.21243078 126.43599807 35.28410458 126.47219849 40.35650635 C126.48728873 42.08214817 126.50776332 43.80775161 126.53372192 45.53326416 C126.57009565 48.01309677 126.58712715 50.49242253 126.60037231 52.97247314 C126.6235981 54.13043144 126.6235981 54.13043144 126.64729309 55.31178284 C126.64895526 60.5971577 126.64895526 60.5971577 125.05081177 63.13922119 C121.88158122 64.95927643 118.88768073 64.3165211 115.30740356 64.14044189 C115.33060669 65.24903564 115.35380981 66.35762939 115.37771606 67.49981689 C115.39647933 68.96335181 115.41467894 70.42689403 115.43240356 71.89044189 C115.44916138 72.62005127 115.46591919 73.34966064 115.48318481 74.10137939 C115.54667717 81.08553883 115.54667717 81.08553883 113.30740356 84.14044189 C110.07369823 86.29624545 109.2139867 86.39115471 105.48709106 86.39440918 C104.49443237 86.40004883 103.50177368 86.40568848 102.47903442 86.41149902 C101.39114624 86.40745056 100.30325806 86.4034021 99.18240356 86.39923096 C98.03586304 86.4027356 96.88932251 86.40624023 95.70803833 86.40985107 C91.90776565 86.41867327 88.10767823 86.4128174 84.30740356 86.40606689 C81.67328862 86.4074134 79.03917391 86.40935381 76.40505981 86.41186523 C70.88029971 86.41550459 65.35559306 86.41070661 59.83084106 86.40118408 C53.44207983 86.39029956 47.05344625 86.39382516 40.66468811 86.40483689 C34.52067368 86.41500322 28.37671587 86.41393127 22.23269653 86.40807343 C19.61713646 86.4067364 17.00157314 86.40838647 14.38601685 86.41303253 C10.73472381 86.41809455 7.08367811 86.41039183 3.43240356 86.39923096 C2.34451538 86.40327942 1.2566272 86.40732788 0.13577271 86.41149902 C-0.85688599 86.40585938 -1.84954468 86.40021973 -2.87228394 86.39440918 C-3.73579468 86.39365513 -4.59930542 86.39290108 -5.48898315 86.39212418 C-7.69259644 86.14044189 -7.69259644 86.14044189 -10.69259644 84.14044189 C-10.69259644 83.15044189 -10.69259644 82.16044189 -10.69259644 81.14044189 C-11.35259644 81.14044189 -12.01259644 81.14044189 -12.69259644 81.14044189 C-12.78531769 71.44807448 -12.85637205 61.75585997 -12.89984512 52.06314564 C-12.92071114 47.56230302 -12.94901056 43.06176405 -12.99435425 38.56109619 C-13.03784751 34.21686002 -13.06174096 29.87291574 -13.07210541 25.52847862 C-13.07949057 23.87186781 -13.09391223 22.21527279 -13.11551666 20.55878639 C-13.14459795 18.23645254 -13.14855062 15.91532141 -13.146698 13.59283447 C-13.1610791 12.90950546 -13.17546021 12.22617645 -13.1902771 11.5221405 C-13.16069895 8.09058728 -12.72111465 6.18699895 -10.91421509 3.23716736 C-7.55068782 0.06272819 -4.49820696 0.01642913 0 0 Z M-9.69259644 5.14044189 C-11.15290297 8.06105497 -10.82798931 10.63586841 -10.83786011 13.89752197 C-10.84289803 14.93929848 -10.84289803 14.93929848 -10.84803772 16.00212097 C-10.85755864 18.30475643 -10.85949158 20.60731921 -10.86056519 22.90997314 C-10.86377763 24.50939464 -10.8671417 26.10881583 -10.87065125 27.70823669 C-10.87664583 31.06495851 -10.87849087 34.42165456 -10.87789917 37.77838135 C-10.87779768 42.07582471 -10.89143487 46.37310235 -10.90867138 50.67050648 C-10.91980232 53.97595475 -10.92181802 57.28136314 -10.92128944 60.58682823 C-10.92246849 62.17082985 -10.92688603 63.75483253 -10.93462181 65.33881569 C-10.9444412 67.55772025 -10.94153581 69.77626766 -10.93551636 71.99517822 C-10.93694138 73.25711502 -10.93836639 74.51905182 -10.93983459 75.81922913 C-10.69735247 79.07655286 -10.27213444 81.2895268 -8.69259644 84.14044189 C-5.82764691 85.09542507 -4.04198235 85.26811771 -1.0688324 85.27415466 C0.35488174 85.28055214 0.35488174 85.28055214 1.80735779 85.28707886 C3.36670296 85.28639908 3.36670296 85.28639908 4.95755005 85.28570557 C6.05371643 85.28906418 7.14988281 85.29242279 8.27926636 85.29588318 C11.91235479 85.30540273 15.54539718 85.30733674 19.17849731 85.30841064 C21.69811523 85.31162231 24.21773295 85.31498631 26.73735046 85.3184967 C32.02250679 85.32449034 37.30764589 85.32637909 42.59280396 85.32574463 C48.70092819 85.32514373 54.80896414 85.33569854 60.91706604 85.35148829 C66.79409433 85.36613921 72.67109565 85.36973272 78.54814339 85.3691349 C81.04844587 85.37031719 83.54874897 85.37475279 86.04903984 85.38246727 C89.54205585 85.39223614 93.03484306 85.38940139 96.52786255 85.38336182 C98.08417137 85.39179108 98.08417137 85.39179108 99.67192078 85.40039062 C100.62388336 85.39619614 101.57584595 85.39200165 102.55665588 85.38768005 C103.38237311 85.38822482 104.20809034 85.38876959 105.05882931 85.38933086 C107.6006799 85.10797988 109.15830018 84.51831041 111.30740356 83.14044189 C113.3746407 80.03958619 113.55237779 79.41112508 113.50271606 75.90997314 C113.49627075 75.10753174 113.48982544 74.30509033 113.48318481 73.47833252 C113.466427 72.64495361 113.44966919 71.81157471 113.43240356 70.95294189 C113.42338013 70.10796143 113.41435669 69.26298096 113.40505981 68.39239502 C113.3815106 66.30828947 113.34564004 64.22432972 113.30740356 62.14044189 C114.017677 62.15204346 114.72795044 62.16364502 115.45974731 62.17559814 C116.37884888 62.18462158 117.29795044 62.19364502 118.24490356 62.20294189 C119.61968872 62.22034424 119.61968872 62.22034424 121.02224731 62.23809814 C123.27333684 62.39993238 123.27333684 62.39993238 124.30740356 61.14044189 C124.40831832 58.55854743 124.44711855 56.00397689 124.44021606 53.42169189 C124.44117279 52.64861694 124.44212952 51.87554199 124.44311523 51.07904053 C124.44379697 49.44146646 124.44194313 47.80388971 124.43777466 46.1663208 C124.43242628 43.65112269 124.43771983 41.13610316 124.44412231 38.62091064 C124.44346153 37.03367066 124.44218037 35.4464308 124.44021606 33.85919189 C124.44325241 32.72326599 124.44325241 32.72326599 124.4463501 31.56439209 C124.7519404 28.06028626 124.7519404 28.06028626 123.30740356 25.14044189 C121.62131391 25.06838678 119.93239697 25.05658122 118.24490356 25.07794189 C117.325802 25.08696533 116.40670044 25.09598877 115.45974731 25.10528564 C114.74947388 25.11688721 114.03920044 25.12848877 113.30740356 25.14044189 C113.32835083 24.55029297 113.3492981 23.96014404 113.37088013 23.35211182 C113.45404039 20.6775619 113.50606047 18.00328374 113.55740356 15.32794189 C113.59091919 14.39917236 113.62443481 13.47040283 113.65896606 12.51348877 C113.67185669 11.62081299 113.68474731 10.72813721 113.69802856 9.80841064 C113.71897583 8.98623047 113.7399231 8.16405029 113.76150513 7.31695557 C113.49772775 5.00837553 113.49772775 5.00837553 111.58306217 3.52821922 C108.9446944 1.91924898 107.50950278 1.76358221 104.44276428 1.75949097 C103.46555923 1.75103149 102.48835419 1.74257202 101.48153687 1.7338562 C100.41594543 1.73992889 99.350354 1.74600159 98.25247192 1.7522583 C97.12529251 1.74700134 95.9981131 1.74174438 94.83677673 1.73632812 C91.10679311 1.72311213 87.37723536 1.73187165 83.64724731 1.74200439 C81.05940163 1.73998427 78.4715565 1.73707335 75.88371277 1.73330688 C70.45904601 1.72888146 65.03453976 1.7350367 59.6098938 1.74932861 C53.33750309 1.76566313 47.0654048 1.76036028 40.79302114 1.7438494 C34.75843761 1.72860018 28.72399724 1.7302073 22.689394 1.7389946 C20.12128216 1.74099984 17.5531629 1.73852604 14.98505974 1.73155594 C11.40081696 1.72396263 7.81714108 1.73551622 4.23294067 1.7522583 C2.63151718 1.74314926 2.63151718 1.74314926 0.9977417 1.7338562 C0.02335648 1.74231567 -0.95102875 1.75077515 -1.9549408 1.75949097 C-2.80240403 1.76062204 -3.64986727 1.76175312 -4.52301121 1.76291847 C-7.18779953 2.22661079 -8.03623974 3.04619837 -9.69259644 5.14044189 Z " fill="#F9CCA7" transform="translate(19.692596435546875,32.85955810546875)"/>
<path d="M0 0 C33.66 0 67.32 0 102 0 C102 20.13 102 40.26 102 61 C68.34 61 34.68 61 0 61 C0 40.87 0 20.74 0 0 Z M2 1 C2 20.14 2 39.28 2 59 C34.34 59 66.68 59 100 59 C100 39.86 100 20.72 100 1 C67.66 1 35.32 1 2 1 Z " fill="#FACFA9" transform="translate(20,46)"/>
<path d="M0 0 C1.226548 0.00303635 1.226548 0.00303635 2.47787476 0.00613403 C3.76315567 0.00350555 3.76315567 0.00350555 5.07440186 0.00082397 C7.9211527 -0.00359561 10.76784197 -0.00065618 13.61459351 0.00271606 C15.58375053 0.00204306 17.55290747 0.00107306 19.52206421 -0.00018311 C23.65480335 -0.00166022 27.78752093 0.00049492 31.92025757 0.00515747 C37.23033871 0.01085476 42.54036932 0.00757583 47.85044861 0.00158501 C51.91834904 -0.00202023 55.9862374 -0.00088219 60.05413818 0.0017128 C62.01265468 0.00238217 63.97117226 0.00155329 65.9296875 -0.00076675 C68.6619255 -0.00329267 71.39408047 0.00054645 74.12631226 0.00613403 C74.94401093 0.0041098 75.76170959 0.00208557 76.60418701 0 C82.18783105 0.02126611 82.18783105 0.02126611 83.30209351 1.13552856 C83.39513369 2.60907204 83.41955616 4.08703447 83.4156189 5.56350708 C83.41549805 6.51761475 83.4153772 7.47172241 83.41525269 8.45474243 C83.41013672 9.46444092 83.40502075 10.4741394 83.39974976 11.51443481 C83.39874268 12.43736328 83.3977356 13.36029175 83.396698 14.31118774 C83.39144845 17.77348058 83.37748731 21.23575576 83.36459351 24.69802856 C83.34396851 32.43240356 83.32334351 40.16677856 83.30209351 48.13552856 C53.60209351 48.13552856 23.90209351 48.13552856 -6.69790649 48.13552856 C-6.71853149 40.40115356 -6.73915649 32.66677856 -6.76040649 24.69802856 C-6.7695105 22.2534021 -6.7786145 19.80877563 -6.78799438 17.29006958 C-6.7909134 15.36485855 -6.79346199 13.43964691 -6.79556274 11.51443481 C-6.80067871 10.50473633 -6.80579468 9.49503784 -6.81106567 8.45474243 C-6.81118652 7.50063477 -6.81130737 6.5465271 -6.81143188 5.56350708 C-6.8136525 4.73077774 -6.81587311 3.8980484 -6.81816101 3.04008484 C-6.5556968 -1.11674744 -3.44504141 0.01312093 0 0 Z M-4.69790649 2.13552856 C-4.69790649 16.98552856 -4.69790649 31.83552856 -4.69790649 47.13552856 C23.68209351 47.13552856 52.06209351 47.13552856 81.30209351 47.13552856 C81.30209351 32.28552856 81.30209351 17.43552856 81.30209351 2.13552856 C52.92209351 2.13552856 24.54209351 2.13552856 -4.69790649 2.13552856 Z " fill="#F9CFAA" transform="translate(32.697906494140625,51.864471435546875)"/>
<path d="M0 0 C1.62523842 -0.0076664 1.62523842 -0.0076664 3.28330994 -0.01548767 C6.86349009 -0.02938323 10.44347774 -0.02842695 14.02368164 -0.02612305 C16.5132301 -0.03000986 19.00277789 -0.0343445 21.49232483 -0.03910828 C26.71007436 -0.04657032 31.92775623 -0.04627918 37.14550781 -0.04101562 C42.50267743 -0.03564338 47.85965809 -0.04268973 53.21679688 -0.06152344 C59.68703235 -0.08397918 66.15710999 -0.0917765 72.62738228 -0.08785057 C75.0925406 -0.08836402 77.55770264 -0.09360615 80.0228405 -0.10366249 C83.46983719 -0.11599884 86.91629321 -0.10925161 90.36328125 -0.09765625 C91.890065 -0.10912186 91.890065 -0.10912186 93.44769287 -0.12081909 C98.82394411 -0.08084622 102.56985213 0.29772839 107.24633789 3.2746582 C107.24633789 3.9346582 107.24633789 4.5946582 107.24633789 5.2746582 C106.68865345 4.9496187 106.13096901 4.6245792 105.55638504 4.28969002 C102.92867574 3.13507786 101.14651212 3.02806209 98.2855835 3.03414917 C97.28721466 3.03139984 96.28884583 3.02865051 95.26022339 3.02581787 C94.17121735 3.03300842 93.0822113 3.04019897 91.96020508 3.04760742 C90.80869965 3.04731537 89.65719421 3.04702332 88.47079468 3.04672241 C84.66152432 3.04811667 80.85244912 3.06368267 77.04321289 3.0793457 C74.40334174 3.08307548 71.76346922 3.08592262 69.12359619 3.08792114 C62.88340229 3.09413528 56.64327854 3.11054518 50.40311551 3.13062012 C43.29796831 3.15298119 36.19281774 3.16397307 29.0876441 3.17401099 C14.47383919 3.19491148 -0.13991048 3.23008617 -14.75366211 3.2746582 C-15.41366211 4.5946582 -16.07366211 5.9146582 -16.75366211 7.2746582 C-16.56616211 4.8996582 -16.56616211 4.8996582 -15.75366211 2.2746582 C-10.99526324 -0.63025269 -5.38097643 -0.01307107 0 0 Z " fill="#FCDEC5" transform="translate(25.753662109375,32.725341796875)"/>
<path d="M0 0 C0.99 0.495 0.99 0.495 2 1 C2 6.61 2 12.22 2 18 C4.31 18 6.62 18 9 18 C11.4375 19 11.4375 19 13 20 C13.07413521 25.07198888 13.12859451 30.14366268 13.16479492 35.21606445 C13.17988516 36.94170627 13.20035975 38.66730972 13.22631836 40.39282227 C13.26269209 42.87265488 13.27972359 45.35198064 13.29296875 47.83203125 C13.31619453 48.98998955 13.31619453 48.98998955 13.33988953 50.17134094 C13.34079394 53.04718443 13.29616705 55.41526356 11.98168945 58.01049805 C10 59 10 59 2 59 C2 64.28 2 69.56 2 75 C1.67 75 1.34 75 1 75 C1 69.39 1 63.78 1 58 C3.64 57.67 6.28 57.34 9 57 C10.38421065 55.84331499 10.38421065 55.84331499 10.11352539 52.67358398 C10.11336629 51.19774444 10.10767314 49.72189931 10.09765625 48.24609375 C10.09553383 47.08292381 10.09553383 47.08292381 10.09336853 45.89625549 C10.08775345 43.40996506 10.07519846 40.9237634 10.0625 38.4375 C10.05748694 36.75586067 10.0529237 35.07421994 10.04882812 33.39257812 C10.03777913 29.26168434 10.02050445 25.13085724 10 21 C6.7 20.67 3.4 20.34 0 20 C0 13.4 0 6.8 0 0 Z " fill="#FAD2AF" transform="translate(133,38)"/>
<path d="M0 0 C2.97 0 5.94 0 9 0 C9 0.33 9 0.66 9 1 C6.36 1 3.72 1 1 1 C1.0314209 1.83192871 1.0314209 1.83192871 1.06347656 2.68066406 C1.14683548 5.20359023 1.19871868 7.72622649 1.25 10.25 C1.28351563 11.12269531 1.31703125 11.99539062 1.3515625 12.89453125 C1.37089844 14.16103516 1.37089844 14.16103516 1.390625 15.453125 C1.4220459 16.61569824 1.4220459 16.61569824 1.45410156 17.80175781 C0.76628715 21.13137121 -0.2017105 22.01054189 -3 24 C-6.66522653 24.59918913 -10.30481232 24.504335 -14.01074219 24.45410156 C-15.13298691 24.45468567 -16.25523163 24.45526978 -17.41148376 24.45587158 C-21.12359468 24.45308325 -24.83490423 24.42195424 -28.546875 24.390625 C-31.11948203 24.38316532 -33.69209473 24.3774711 -36.26470947 24.37347412 C-42.34564979 24.35975828 -48.42625904 24.32822816 -54.50707459 24.28807616 C-61.43081593 24.24335162 -68.35457108 24.22136976 -75.27842093 24.20129442 C-89.51910188 24.15949498 -103.75954071 24.08914725 -118 24 C-118 23.67 -118 23.34 -118 23 C-117.42554736 22.99576806 -116.85109472 22.99153612 -116.25923443 22.98717594 C-102.28826867 22.88391821 -88.31735433 22.77522568 -74.34647655 22.66066074 C-67.59029557 22.6053581 -60.8341093 22.55188096 -54.07788086 22.50268555 C-47.56155368 22.45523186 -41.04527889 22.40271186 -34.52901649 22.34705925 C-32.03906901 22.32663008 -29.54910684 22.30791794 -27.05913353 22.29092598 C-23.57997692 22.26689454 -20.10092188 22.23683805 -16.62182617 22.20532227 C-15.06708084 22.19668907 -15.06708084 22.19668907 -13.48092651 22.18788147 C-12.53441727 22.17809265 -11.58790802 22.16830383 -10.61271667 22.15821838 C-9.78955554 22.15176583 -8.96639441 22.14531328 -8.11828899 22.1386652 C-5.80972708 22.07745532 -5.80972708 22.07745532 -3 21 C-0.9859044 17.9788566 -0.73163404 17.19339983 -0.5859375 13.76953125 C-0.54726562 12.96708984 -0.50859375 12.16464844 -0.46875 11.33789062 C-0.4378125 10.50451172 -0.406875 9.67113281 -0.375 8.8125 C-0.33632812 7.96751953 -0.29765625 7.12253906 -0.2578125 6.25195312 C-0.16363721 4.16832476 -0.08073325 2.08419247 0 0 Z " fill="#F5BD8C" transform="translate(133,95)"/>
<path d="M0 0 C2.97 0 5.94 0 9 0 C9 0.33 9 0.66 9 1 C6.36 1 3.72 1 1 1 C1.0314209 1.83192871 1.0314209 1.83192871 1.06347656 2.68066406 C1.14683548 5.20359023 1.19871868 7.72622649 1.25 10.25 C1.30027344 11.55904297 1.30027344 11.55904297 1.3515625 12.89453125 C1.45112665 19.41598332 1.45112665 19.41598332 -1.015625 22.609375 C-1.67046875 23.06828125 -2.3253125 23.5271875 -3 24 C-3 21 -3 21 -1 18 C-0.63648496 15.97457852 -0.63648496 15.97457852 -0.5859375 13.76953125 C-0.54726562 12.96708984 -0.50859375 12.16464844 -0.46875 11.33789062 C-0.4378125 10.50451172 -0.406875 9.67113281 -0.375 8.8125 C-0.33632812 7.96751953 -0.29765625 7.12253906 -0.2578125 6.25195312 C-0.16363721 4.16832476 -0.08073325 2.08419247 0 0 Z " fill="#FBCA9E" transform="translate(133,95)"/>
<path d="M0 0 C0.33 0 0.66 0 1 0 C1.25 2.75 1.25 2.75 1 6 C-1 8.375 -1 8.375 -3 10 C-3 6.13304322 -1.58090029 3.4911548 0 0 Z " fill="#FBD3B2" transform="translate(133,109)"/>
</svg>
