<?xml version="1.0" encoding="UTF-8"?><svg id="Layer_2" xmlns="http://www.w3.org/2000/svg" viewBox="0 0 417.69 331.88"><defs><style>.cls-1,.cls-2,.cls-3,.cls-4,.cls-5,.cls-6,.cls-7,.cls-8{fill:none;}.cls-2{stroke:#ff7000;}.cls-2,.cls-9,.cls-10,.cls-3,.cls-4,.cls-5,.cls-7,.cls-11{stroke-linecap:round;}.cls-2,.cls-9,.cls-3,.cls-4{stroke-linejoin:round;}.cls-2,.cls-3,.cls-7{stroke-width:3px;}.cls-12{fill:#d6d6d6;}.cls-13{fill:#005cc3;}.cls-14{fill:#231f20;}.cls-9,.cls-4,.cls-15,.cls-16,.cls-8{stroke-width:2px;}.cls-9,.cls-4,.cls-15,.cls-11{stroke:#fff;}.cls-10,.cls-15,.cls-17,.cls-18,.cls-16,.cls-19,.cls-20{fill:#fff;}.cls-10,.cls-15,.cls-17,.cls-16,.cls-5,.cls-19,.cls-6,.cls-7,.cls-8,.cls-11,.cls-20{stroke-miterlimit:10;}.cls-10,.cls-17,.cls-16,.cls-19,.cls-6,.cls-8{stroke:#000;}.cls-21,.cls-22{fill:#ff7000;}.cls-3{stroke:#005cc3;}.cls-23{fill:#00b4ea;}.cls-24{fill:#666;}.cls-5{stroke:#00b4ea;stroke-width:7px;}.cls-19,.cls-20{stroke-width:1.5px;}.cls-7{stroke:#ffaee8;}.cls-20{stroke:#231f20;}.cls-25{fill:#eee;}.cls-22{fill-rule:evenodd;}</style></defs><g id="Calque_2"><path class="cls-24" d="M305.71,303.49h-69.95c-23.85,0,18.5,12.75-39.2,12.75s-44.76,15.63-.87,15.63h161.9c57.82,0,66.92-28.39-51.89-28.39"/><path class="cls-24" d="M109.91,302.2L1.65,283.54c-3.43-1.45-1.42-3.77,5.23-3.77h77.48l20.37,16.16,5.18,6.27"/><path class="cls-15" d="M217.48,17.88L115.13,1.46c-13.91-2.22-20.89,3.98-26.86,11.79-5.97,7.81-9.45,13.97-9.45,25.07v232.58c0,9.96,5.64,18.52,13.82,22.8,5.15,5.06,12.36,8,20.19,7.44l102.36-7.26c13.7-.97,24.32-12.37,24.32-26.11V43.72c0-12.86-9.34-23.81-22.03-25.84Z"/><path d="M80.62,37.31v234.58c0,14.92,12.65,26.7,27.53,25.65l96.13-6.81c13.46-.95,23.9-12.15,23.9-25.65V52.74c0-12.63-9.17-23.39-21.64-25.39l-96.13-15.42c-15.63-2.51-29.79,9.56-29.79,25.39Z"/><polygon points="91.36 13.24 84.36 23.95 91.46 292.87 98.29 297.72 104.73 213.39 102.68 31.08 91.36 13.24"/><path class="cls-18" d="M112.75,298.2c-12.21,0-22.14-9.95-22.14-22.18V28.3c0-12.23,9.92-22.18,22.12-22.18,1.18,0,2.38.1,3.57.29l102.36,16.42c10.81,1.73,18.66,10.94,18.66,21.9v224.04c0,11.58-9.05,21.3-20.61,22.12l-102.36,7.26c-.54.04-1.07.06-1.6.06Z"/><path d="M112.73,10.12c.97,0,1.96.08,2.93.24l102.36,16.42c8.86,1.42,15.3,8.97,15.3,17.95v224.04c0,9.49-7.42,17.46-16.89,18.13l-102.36,7.26c-.44.03-.88.05-1.32.05-10,0-18.14-8.15-18.14-18.18V28.3c0-10.03,8.13-18.18,18.12-18.18M112.73,2.12c-14.16,0-26.12,11.5-26.12,26.18v247.72c0,14.55,11.83,26.18,26.14,26.18.62,0,1.25-.02,1.88-.07l102.36-7.26c13.7-.97,24.32-12.37,24.32-26.11V44.72c0-12.86-9.34-23.81-22.03-25.84L116.93,2.46c-1.41-.23-2.82-.34-4.2-.34h0Z"/><path d="M135.3,13.45c11.57,2.45,8.53,12.88,18.69,14.64,10.17,1.75,30.85,4.34,35.43,4.82,10.56,1.11,6.82-9.62,16.42-8.11s-.44-5.03-.44-5.03l-75.36-11.22,5.26,4.91Z"/><path id="Chatbot" class="cls-22" d="M297.26,18.43h-49.07v35.53c0,2.8,2.27,5.08,5.08,5.08h6.77v11.84l11.84-11.84h30.46V23.5c0-2.8-2.27-5.08-5.08-5.08ZM263.36,30.27c1.87,0,3.38,1.52,3.38,3.38s-1.52,3.38-3.38,3.38-3.38-1.52-3.38-3.38h0c0-1.87,1.52-3.38,3.38-3.38ZM287.04,30.27c1.87,0,3.38,1.52,3.38,3.38s-1.52,3.38-3.38,3.38-3.38-1.52-3.38-3.38h0c0-1.87,1.52-3.38,3.38-3.38ZM283.73,44.65c0-1.4-1.14-2.53-2.54-2.54h-11.84c-1.4,0-2.53,1.14-2.54,2.54h0v.85c0,1.87,3.79,3.38,8.46,3.38s8.46-1.52,8.46-3.38v-.85h0Z"/><path class="cls-18" d="M87.61,49.44h.72c1.05,0,1.9.85,1.9,1.9v39.86c0,1.05-.85,1.9-1.9,1.9h-.72c-1.05,0-1.9-.85-1.9-1.9v-39.86c0-1.05.85-1.9,1.9-1.9Z"/><path class="cls-14" d="M88.33,49.56c.98,0,1.77.8,1.77,1.77v39.86c0,.98-.8,1.77-1.77,1.77h-.72c-.98,0-1.77-.8-1.77-1.77v-39.86c0-.98.8-1.77,1.77-1.77h.72M88.33,49.31h-.72c-1.11,0-2.02.91-2.02,2.02v39.86c0,1.11.91,2.02,2.02,2.02h.72c1.11,0,2.02-.91,2.02-2.02v-39.86c0-1.11-.91-2.02-2.02-2.02h0Z"/><rect x="83.21" y="50.12" width="4.76" height="43.91" rx="2.02" ry="2.02"/><path class="cls-18" d="M175.57,21.77c0,2.1-.82,3.8-1.82,3.8s-1.82-1.7-1.82-3.8.81-3.8,1.82-3.8,1.82,1.7,1.82,3.8Z"/><polyline class="cls-21" points="216.67 186.57 216.67 203.64 118.66 203.64 118.66 55.32 211.52 65.18"/><polygon points="118.66 55.32 216.67 65.47 216.67 203.64 199.24 203.64 199.24 70.04 118.66 62.54 118.66 55.32"/><path class="cls-16" d="M171.09,105.56c-8.92,20.59-19.69,100.56,2.03,106.8,15.59,3.62,51.4-17.36,69.83-76.72,18.43-59.36-71.86-30.08-71.86-30.08Z"/><path class="cls-23" d="M173.99,212.64c5.25,1.22,12.8-.37,21.21-5.26-21.37,9.96-36.18-71.61-5.99-59.13l-6.68-25.21-10.61-3.78-4.04-.34c-7.36,30.17-12.29,88.43,6.11,93.72Z"/><path class="cls-16" d="M239.08,146.5c-3.66,8.31-28.51,11.13-42.67,5.34-14.15-5.79-33.31-19.82-30.07-31.15l4.61-14.85,4.11-2.17,14.75,5.56,21.36,17.31,18.8-1.29,4.84,13.89"/><path class="cls-23" d="M191.23,148.18c-5.94-2.77-6-15.34-1.78-12.38l4.55-23.31-4.02-3.26-14.75-5.56-4.11,2.17-4.61,14.85c-2.86,10.01,12.08,21.23,25.28,27.91-.07-.14-.25-.29-.55-.43Z"/><ellipse class="cls-16" cx="163.96" cy="130.51" rx="11.11" ry="12.3"/><path class="cls-16" d="M174.54,89.44c12.22-27.34,43.43-28.95,59.51-17.69s22.52,33.46,14.15,53.08c-8.36,19.62-24.87,25.34-53.08,13.51-29.92-12.55-23.4-43.57-20.59-48.9Z"/><path d="M251.88,107.15c-.73,7.24-24.52,1.23-33.99-2.32-10.27-3.85-17.78-2.57-21.4,5.1-3.03,6.41-4.96,13.85,8.06,20.59,13.02,6.74,34.83,6.72,39.45,1.72,1.06-1.75,3.37-5.35,4.25-7.41,2.29-5.37,3.46-12.2,3.64-17.68Z"/><path d="M202.91,126.55s-3.45,7.45-3.77,8.12c-.32.67,1,1.53,2.17.94,2.42-1.22,11.6-5.72,11.6-5.72"/><path class="cls-18" d="M226.13,121.61c-.83,2.7-3.24,4.36-5.38,3.71-2.15-.66-3.21-3.38-2.39-6.08s3.24-4.36,5.38-3.71,3.21,3.38,2.39,6.08Z"/><path class="cls-18" d="M242.78,123.94c-.79,2.57-3.08,4.15-5.12,3.52-2.04-.62-3.06-3.21-2.27-5.78.79-2.57,3.08-4.15,5.12-3.52,2.04.62,3.06,3.21,2.27,5.78Z"/><polyline class="cls-8" points="157.78 140.74 149.16 166.38 189.02 166.38"/><path class="cls-19" d="M153.7,165.86c0,2.77-2.03,5.02-4.53,5.02s-4.53-2.25-4.53-5.02,2.03-5.02,4.53-5.02,4.53,2.25,4.53,5.02Z"/><path class="cls-20" d="M189.02,166.38s-.63,7.19,7.26,7.33l.88-7.85,11.26-.63.1-2.84-14.87-2.71s-4.87,1.71-4.63,6.7Z"/><polygon class="cls-18" points="226.86 203.64 113.87 203.64 113.87 256.68 226.16 256.68 226.86 203.64"/><path class="cls-23" d="M229.97,69.33c-16.82-8.42-43.28-5.02-54.54,20.16-2.81,5.32-9.8,35.39,20.12,47.93,2.01.84,3.96,1.59,5.86,2.26-.59-.29-1.2-.59-1.86-.91-35.97-16.88-9.98-83.16,30.43-69.44Z"/><path class="cls-23" d="M172.42,125.2v-.81c-1.82-3.09-4.96-5.14-8.54-5.14-5.62,0-10.18,5.05-10.18,11.27s4.56,11.27,10.18,11.27c.68,0,1.35-.08,1.99-.22-.44-.06-.91-.13-1.44-.18-15.58-1.75-.34-29.21,7.99-16.18Z"/><path class="cls-23" d="M145.31,165.86c0,2.37,1.73,4.28,3.87,4.28,1.57,0,2.91-1.04,3.52-2.52-2.78,3.28-8.84-3.48-3.52-6.04-2.14,0-3.87,1.92-3.87,4.28Z"/><path class="cls-23" d="M193.81,160.15s-4.54,1.53-4.3,6.28c0,0-.48,6.67,6.39,6.84l.88-7.86,11.14-.66-11.74-.6s-5.59-.21-2.36-4Z"/><path class="cls-22" d="M178.15,230.57h0c-1.14-1.26-3-1.28-4.16-.03-.01.02-.03.03-.04.05h0s-13.59,15.64-13.59,15.64l5.9-.2v13.13c.02,1.81,1.34,3.19,2.98,3.09l13.82-.92c1.63-.11,2.95-1.61,2.94-3.35l-.06-12.61,5.9-.2-13.69-14.6ZM179.25,247.19l.03,9.27-8.58.48c-.82.05-1.48-.65-1.48-1.55h0l-.02-9.46,8.56-.29c.82-.03,1.48.67,1.48,1.55h0Z"/><path class="cls-10" d="M295.16,303.49l2.72,3.97c.46.68.37,1.59-.23,2.15l-10.14,9.5c-.34.31-.53.75-.53,1.21v.41c0,.92.74,1.66,1.66,1.66h7.74c.12,0,.24-.01.35-.04l12.33-2.66c.34-.07.64-.24.87-.5.61-.67,1.68-2.12,1.39-3.99-.4-2.59-1.66-10.83-1.66-10.83"/><path d="M295.76,303.63l13.75.21,1.43,11.79s-1.43-10.45-15.18-12c-13.75-1.55,0,0,0,0"/><path class="cls-5" d="M297.51,118.99c-6.22,1.95-14.35,5.35-15.92,6.53-1.52,1.14-6.17,7.51-11.13,15.64"/><polyline class="cls-11" points="357.6 202.96 288.07 202.96 288.07 205.72 295.16 213.04 360.67 213.03 357.6 202.96"/><path class="cls-3" d="M326.51,104.08s3.46-2.09,4.88-4.23,4.25-9.41,4.25-13.3-5.79-17.55-8.39-18.08"/><path class="cls-4" d="M327.25,68.46c-2.59-.53-19.42,3.91-20.49,4.8,0,0-2.13-4.43-5.49-2.13-3.37,2.3-9.39,14.35-9.57,17.36-.18,3.01,1.43,14.7,3.46,16.3"/><path class="cls-17" d="M336.54,149.69c4.94,10.71,12.91,22.25,12.91,22.25l-24.45,8.79c1.92-.55,4.12,11.26.27,11.26h45.32c14.28,0,12.64-10.71,10.44-18.13-2.2-7.42-20.05-45.05-26.09-49.72s-22.8-7.97-35.71-7.97c-19.23,0-34.88,6.87-38.18,9.34-3.3,2.47-21.42,29.67-25.27,45.87-3.85,16.21,21.7,20.6,21.7,20.6h84.05"/><path class="cls-23" d="M352.2,139.61c8.74,8.94,18.22,30.03,18.22,30.03,0,0,3.36,5.85-6.46,9.09-10.51,3.46-34.63,7.88-36.09,8.27.05,1.37,0,3.77-1.56,4.73l35.23-.15h9.06c14.28,0,12.41-10.26,10.21-17.68-2.2-7.42-20.09-44.6-26.13-49.27-5.28-4.08-18.99-7.38-30.92-8.08l-38.81,7.35s-4.32,1.42-6.15,4.81c0,0,64.66,1.95,73.4,10.89Z"/><path class="cls-6" d="M285.17,147.22s-3.02,24.72,0,43.12"/><line class="cls-6" x1="349.45" y1="171.94" x2="362.54" y2="167.33"/><path class="cls-17" d="M325.34,98.89c0,.83,3.05,24.71,3.05,24.71,1.39,7.22-25.26,9.99-26.65,0-1.39-9.99-2.22-15.82-2.22-15.82l25.82-8.88Z"/><path class="cls-17" d="M325,180.73c-8.14,2.6-27.89,7.61-29.24,8.69-1.35,1.08,0,2.57,0,2.57h29.51s4.62-4.8-.27-11.26Z"/><path class="cls-9" d="M330.05,207.84c23.07-6.78,55.29-5.09,69.88,0,14.59,5.09,21.37,13.57,11.87,25.44-9.5,11.87-51.9,50.2-67.84,70.22h-16.71s3.86-22.51,25.53-67.16c0,0-38.33-.34-50.88.68,0,0,7.93,41.72,11.77,66.49h-18.5s-31.96-43.62-43.82-73.71c-11.86-30.09,11.3-33.82,43.82-21.61"/><path class="cls-6" d="M352.78,236.33c4.73-9.62,6.73-13.42,6.73-13.42"/><path class="cls-6" d="M301.9,237.01c-1.61-8.3-3.21-15.3-3.21-15.3"/><path class="cls-7" d="M296.59,305.54l1.32,1.92c.46.68.37,1.59-.23,2.15l-10.14,9.5"/><path class="cls-10" d="M343.96,303.49l-2.1,2.42c-.46.53-.47,1.32-.01,1.86l6.26,7.44c.22.26.34.58.34.92v1.57c0,.74-.56,1.35-1.29,1.43l-8.51.85c-.12.01-.24,0-.36,0l-11.77-1.78c-.7-.11-1.22-.71-1.22-1.42v-1.66c0-.2.04-.4.12-.58l4.44-10.08"/><path class="cls-23" d="M328.02,123.28s-3.05-23.87-3.05-24.71l-5.03,7.91-3.88,13.62s2.61,7.04-.62,9.12c-.14.09-.34.26-.41.37,7.03-.13,13.71-2.57,12.99-6.31Z"/><path class="cls-17" d="M293.97,96.11c2.22,15.27,4.44,26.93,13.88,26.93s17.59-8.61,19.48-23.6-2.55-23.32-15.04-22.76c-12.49.56-20,9.27-18.32,19.43Z"/><path class="cls-21" d="M297.51,93.84l.6-11.33c-3.42,3.55-5,8.38-4.13,13.6,2.22,15.27,5.07,26.46,13.88,26.46-6.44-.93-11.9-19.29-10.34-28.73Z"/><path class="cls-23" d="M326.8,99.45c1.28-10.17-.36-17.26-5.44-20.6l-6.65.6-6.92,4.36-1.81,4.66-1.49,8.21c9.3-1.14,15.15,13.2,6.89,25.42,7.88-2.02,13.81-9.99,15.41-22.66Z"/><path class="cls-23" d="M337.46,152.76s2.97,13.31,1.55,22.45l9.79-3.48s-8.92-13.6-11.35-18.97Z"/><path class="cls-21" d="M398.92,208c-10-3.49-29.28-4.46-47.22-3.12h0l57.64,30.58c.51-.59.97-1.15,1.38-1.64,10.77-12.94,2.79-20.73-11.8-25.82Z"/><path class="cls-1" d="M336.98,149.5s6.03,12.19,12.47,21.87l8.99-2.6s-7.79-.14-21.46-19.28Z"/><path class="cls-3" d="M361.58,284.07l48.84-49.15c8.35-7.42,9.8-20.84-10.49-27.08"/><path class="cls-3" d="M298.69,221.71s11.61,61.98,13.61,73.27"/><path class="cls-7" d="M359.51,222.91s-16.12,33.74-23.13,51.07"/><path class="cls-7" d="M363.44,191.99h7.15c14.28,0,12.64-10.71,10.44-18.13-.54-1.81-2-5.41-4-9.89"/><path class="cls-2" d="M339.74,155.95c2.91,5.44,4.59,8.03,7.69,12.73"/><path d="M302.51,97c6.55-.35,7.26-3.19,10.28-6.2s7.86-2.08,7.62,3.9c-.25,5.98-1.47,9.39-1.47,9.39l3.42-1.77s.28-6.57,2.83-7.26c2.55-.69,1.32,9.04,1.32,9.04,0,0,3.46-2.09,4.88-4.23s4.25-9.41,4.25-13.3-5.79-17.55-8.39-18.08c-2.59-.53-19.42,3.91-20.49,4.8,0,0-2.13-4.43-5.49-2.13-3.37,2.3-9.39,14.35-9.57,17.36-.18,3.01,1.43,14.7,3.46,16.3-.78-5.9-.45-12.4.79-11.69,1.24.71,2.13,4.78,6.55,3.9Z"/><path class="cls-13" d="M309.18,72.33c-1.3.41-2.2.75-2.42.93,0,0-2.13-4.43-5.49-2.13-3.37,2.3-9.39,14.35-9.57,17.36-.18,3.01,1.43,14.7,3.46,16.3-.78-5.9-.45-12.4.79-11.69,1.24.71,2.13,4.78,6.55,3.9.73-.04,1.38-.11,1.97-.21l.02-.1c-6.5,1.24-6.91-17.18,4.67-24.36Z"/><path class="cls-21" d="M256.44,171.39c-1.16,4.9.37,8.72,3.06,11.66,2.09-1.08,3.85-3.46,5.15-7.85,6.32-21.3,9.43-36.93,16.99-46.4l-2.74-.2c-5.93,7.62-19.19,29.01-22.46,42.79Z"/><polygon class="cls-25" points="236.03 191.99 214.31 159.98 273.11 159.98 290.84 191.99 236.03 191.99"/><path d="M272.82,160.48l17.18,31h-53.7l-21.04-31h57.56M273.4,159.48h-60.04l22.4,33h55.93l-18.29-33h0Z"/><polyline class="cls-12" points="220.68 168.23 272.97 191.49 290.27 191.67 282.44 177.92 246.69 160.3 215.3 160.3 224.8 174.29"/><path d="M344.17,303.84s-14.12,1.7-18.04,10.28c-2,4.38,3.77-9.89,3.77-9.89l14.28-.39Z"/><path class="cls-3" d="M347.15,319.14c.73-.07,1.29-.69,1.29-1.43v-1.57c0-.34-.12-.66-.34-.92l-6.26-7.44c-.45-.54-.45-1.33.01-1.86l2.1-2.42"/><path d="M326.96,187.19c-3.98.81-5.64,4.12-19.01,4.27-13.37.14,17.33.54,17.33.54,0,0,1.87-2.62,1.68-4.8Z"/><path class="cls-18" d="M84.52,288.61c5.98,6.14,13.39,10.9,18.98,12.59l-10.93-6.45-8.05-6.14Z"/></g></svg>