<?xml version="1.0" encoding="UTF-8"?>
<svg version="1.1" xmlns="http://www.w3.org/2000/svg" width="150" height="152">
<path d="M0 0 C49.5 0 99 0 150 0 C150 50.16 150 100.32 150 152 C100.5 152 51 152 0 152 C0 101.84 0 51.68 0 0 Z " fill="#FEFDFC" transform="translate(0,0)"/>
<path d="M0 0 C12.21 0 24.42 0 37 0 C37 24.75 37 49.5 37 75 C24.79 75 12.58 75 0 75 C0 50.25 0 25.5 0 0 Z " fill="#FEFEFD" transform="translate(91,19)"/>
<path d="M0 0 C1.86147675 0.00045319 1.86147675 0.00045319 3.76055908 0.00091553 C5.10958501 0.02134041 6.45860435 0.04220437 7.80761719 0.06347656 C9.19194725 0.07094054 10.5762879 0.07663274 11.96063232 0.08062744 C15.59738536 0.09587182 19.23349544 0.13514204 22.86999512 0.17944336 C26.583489 0.22042264 30.29708718 0.23864405 34.01074219 0.25878906 C41.29228473 0.30163855 48.57329824 0.36987402 55.85449219 0.45410156 C55.19449219 2.76410156 54.53449219 5.07410156 53.85449219 7.45410156 C35.04449219 7.45410156 16.23449219 7.45410156 -3.14550781 7.45410156 C-3.14550781 42.10410156 -3.14550781 76.75410156 -3.14550781 112.45410156 C24.24449219 112.45410156 51.63449219 112.45410156 79.85449219 112.45410156 C79.85449219 108.82410156 79.85449219 105.19410156 79.85449219 101.45410156 C82.16449219 101.45410156 84.47449219 101.45410156 86.85449219 101.45410156 C86.97076722 105.03716148 87.04176579 108.61973574 87.10449219 112.20410156 C87.13800781 113.21988281 87.17152344 114.23566406 87.20605469 115.28222656 C87.22539062 116.75175781 87.22539062 116.75175781 87.24511719 118.25097656 C87.26606445 119.15170898 87.28701172 120.05244141 87.30859375 120.98046875 C86.67892689 124.41046047 85.64614012 125.36286368 82.85449219 127.45410156 C79.877274 127.84864295 77.27039987 128.00137609 74.29394531 127.97167969 C73.4317186 127.97868896 72.56949188 127.98569824 71.68113708 127.99291992 C68.83234406 128.01051845 65.98454523 127.99887068 63.13574219 127.98535156 C61.15563771 127.98804594 59.17553452 127.99192791 57.19543457 127.99694824 C53.0460144 128.00284581 48.89693872 127.99427194 44.74755859 127.97558594 C39.42750886 127.95279633 34.10826627 127.96591802 28.78824615 127.98987579 C24.69958408 128.00432673 20.61111351 127.999731 16.52244568 127.98936462 C14.56082565 127.98669539 12.59918826 127.98997398 10.6375885 127.99928284 C7.89626989 128.00943679 5.15626013 127.99396383 2.41503906 127.97167969 C1.60348862 127.97977661 0.79193817 127.98787354 -0.04420471 127.99621582 C-3.45264814 127.94485863 -5.61800831 127.8652924 -8.35331726 125.73309326 C-10.46470705 123.0482003 -10.64758594 121.85560333 -10.65344238 118.4822998 C-10.66472168 117.48129745 -10.67600098 116.4802951 -10.68762207 115.44895935 C-10.67952515 114.35688675 -10.67142822 113.26481415 -10.66308594 112.13964844 C-10.67009521 110.98481461 -10.67710449 109.82998077 -10.68432617 108.64015198 C-10.70195147 104.81747492 -10.69026647 100.99553633 -10.67675781 97.17285156 C-10.67945141 94.5201322 -10.68332639 91.8674354 -10.68835449 89.21472168 C-10.69562966 83.65299457 -10.68604685 78.09147999 -10.66699219 72.52978516 C-10.6452234 66.10169871 -10.65227488 59.67411974 -10.67429781 53.24604559 C-10.69245576 47.72488486 -10.6950083 42.20387681 -10.68454313 36.68269587 C-10.67831023 33.38605676 -10.6790394 30.08970822 -10.69068909 26.79307556 C-10.70082572 23.11788417 -10.68539211 19.44367291 -10.66308594 15.76855469 C-10.67118286 14.67648209 -10.67927979 13.58440948 -10.68762207 12.45924377 C-10.67634277 11.45824142 -10.66506348 10.45723907 -10.65344238 9.42590332 C-10.65193428 8.55723885 -10.65042618 7.68857437 -10.64887238 6.79358673 C-9.39364774 0.95968497 -5.36572067 -0.04362375 0 0 Z " fill="#F16F01" transform="translate(26.1455078125,11.5458984375)"/>
<path d="M0 0 C0.98367554 -0.0038269 1.96735107 -0.00765381 2.98083496 -0.01159668 C5.05868555 -0.01431627 7.13657035 -0.00695182 9.21435547 0.00976562 C12.39498211 0.03117416 15.57334987 0.00996512 18.75390625 -0.015625 C20.77344249 -0.01298173 22.79297732 -0.00785678 24.8125 0 C25.76362671 -0.00809692 26.71475342 -0.01619385 27.69470215 -0.02453613 C28.5824231 -0.01192749 29.47014404 0.00068115 30.38476562 0.01367188 C31.55247498 0.01844543 31.55247498 0.01844543 32.74377441 0.02331543 C35.94101816 0.77430223 37.01934759 1.84118435 38.90625 4.53125 C39.30595394 7.47327911 39.46367689 10.04218639 39.43969727 12.98413086 C39.45262062 14.26043114 39.45262062 14.26043114 39.46580505 15.56251526 C39.48850016 18.37401791 39.4817195 21.18452661 39.47265625 23.99609375 C39.47789052 25.95138343 39.48416627 27.90667058 39.49143982 29.86195374 C39.50185076 33.96009196 39.49727295 38.05788312 39.48266602 42.15600586 C39.46548302 47.40658159 39.4889639 52.65606254 39.52415562 57.90651608 C39.54612235 61.94461818 39.54468979 65.98245809 39.5363903 70.02060127 C39.53557027 71.95628624 39.54244354 73.89199036 39.55716133 75.82761955 C39.57459263 78.53542098 39.56007711 81.24125226 39.53735352 83.94897461 C39.55489182 85.14688126 39.55489182 85.14688126 39.57278442 86.36898804 C39.50482142 90.35170648 39.06964455 92.3148597 36.64402771 95.52720642 C33.88756724 97.54492572 32.80349885 98.16025107 29.47070312 98.17822266 C28.6263269 98.19398346 27.78195068 98.20974426 26.9119873 98.22598267 C26.01290649 98.21586151 25.11382568 98.20574036 24.1875 98.1953125 C23.25200317 98.20009613 22.31650635 98.20487976 21.35266113 98.20980835 C19.37913324 98.2132036 17.40554882 98.20402739 15.43212891 98.18310547 C12.41571344 98.15633399 9.40301883 98.18286536 6.38671875 98.21484375 C4.46613764 98.21153958 2.54555884 98.20513321 0.625 98.1953125 C-0.27408081 98.20543365 -1.17316162 98.21555481 -2.0994873 98.22598267 C-6.398849 98.14573243 -8.54658906 97.90083423 -12.18554688 95.44287109 C-14.61364877 91.73796536 -14.57529424 89.68059065 -14.34375 85.28125 C-14.30191171 83.85906917 -14.26379115 82.43677507 -14.22900391 81.0144043 C-14.20493469 80.28023285 -14.18086548 79.5460614 -14.15606689 78.78964233 C-13.43516568 66.01663629 -13.43516568 66.01663629 -18.0703125 54.60546875 C-20.31809634 52.28620932 -22.73030934 50.43709813 -25.3828125 48.60546875 C-28.09375 46.53125 -28.09375 46.53125 -28.3671875 44.52734375 C-26.87083718 42.18183758 -25.00406992 40.8722764 -22.7890625 39.23242188 C-18.54554082 35.91289282 -15.5648072 32.92579076 -14.49609375 27.49316406 C-14.11369516 22.81686023 -14.06096139 18.20983648 -14.19140625 13.52099609 C-14.22105469 12.42094238 -14.25070313 11.32088867 -14.28125 10.1875 C-14.33667969 9.19556641 -14.39210938 8.20363281 -14.44921875 7.18164062 C-14.09375 4.53125 -14.09375 4.53125 -12.71289062 2.2109375 C-8.64393723 -0.39853298 -4.73767355 -0.04033173 0 0 Z M-6.09375 7.53125 C-6.09375 32.28125 -6.09375 57.03125 -6.09375 82.53125 C6.11625 82.53125 18.32625 82.53125 30.90625 82.53125 C30.90625 57.78125 30.90625 33.03125 30.90625 7.53125 C18.69625 7.53125 6.48625 7.53125 -6.09375 7.53125 Z " fill="#F17208" transform="translate(97.09375,11.46875)"/>
<path d="M0 0 C0.042721 1.66611905 0.04063832 3.33382885 0 5 C-1 6 -1 6 -3.5 6.125 C-6 6 -6 6 -7 5 C-7.04063832 3.33382885 -7.042721 1.66611905 -7 0 C-4.3333581 -1.33332095 -2.83319697 -0.67102033 0 0 Z " fill="#FEF4EC" transform="translate(68,129)"/>
<path d="M0 0 C2.625 0.375 2.625 0.375 5 1 C5.042721 2.66611905 5.04063832 4.33382885 5 6 C4 7 4 7 1.4375 7.0625 C0.2309375 7.0315625 0.2309375 7.0315625 -1 7 C-1.625 4.625 -1.625 4.625 -2 2 C-1.34 1.34 -0.68 0.68 0 0 Z " fill="#FEF6EF" transform="translate(108,98)"/>
</svg>
