<?xml version="1.0" encoding="UTF-8"?>
<svg version="1.1" xmlns="http://www.w3.org/2000/svg" width="150" height="152">
<path d="M0 0 C1.86170334 0.0001133 1.86170334 0.0001133 3.76101685 0.00022888 C5.12046346 0.00533589 6.47990966 0.01055189 7.83935547 0.01586914 C9.22655181 0.01773397 10.61374881 0.01915757 12.00094604 0.02015686 C15.65388809 0.02397691 19.30679044 0.03380284 22.9597168 0.04486084 C26.68651797 0.05508595 30.41332556 0.05965684 34.14013672 0.06469727 C41.45395691 0.07542556 48.76774438 0.09249585 56.08154297 0.11352539 C55.09154297 3.08352539 54.10154297 6.05352539 53.08154297 9.11352539 C34.60154297 9.11352539 16.12154297 9.11352539 -2.91845703 9.11352539 C-2.91845703 43.43352539 -2.91845703 77.75352539 -2.91845703 113.11352539 C23.81154297 113.11352539 50.54154297 113.11352539 78.08154297 113.11352539 C78.08154297 109.48352539 78.08154297 105.85352539 78.08154297 102.11352539 C79.08154297 101.11352539 79.08154297 101.11352539 82.58154297 100.98852539 C86.08154297 101.11352539 86.08154297 101.11352539 87.08154297 102.11352539 C87.38898124 105.52121365 87.35998073 108.94367661 87.39404297 112.36352539 C87.43754883 113.79631836 87.43754883 113.79631836 87.48193359 115.25805664 C87.4903125 116.18489258 87.49869141 117.11172852 87.50732422 118.06665039 C87.52190674 118.91388672 87.53648926 119.76112305 87.55151367 120.6340332 C86.88049592 124.1742183 85.70213186 125.63001609 83.08154297 128.11352539 C79.98457985 128.61657275 77.43503544 128.79825963 74.33740234 128.76049805 C73.45566849 128.76925964 72.57393463 128.77802124 71.66548157 128.78704834 C68.75158443 128.80905077 65.83920546 128.79448671 62.92529297 128.77758789 C60.90034697 128.78095578 58.87540294 128.78580818 56.85046387 128.79208374 C52.60681917 128.79945622 48.36370072 128.78873729 44.12011719 128.76538086 C38.67885197 128.73689309 33.23881976 128.75329502 27.79759979 128.78324318 C23.61625874 128.80130588 19.43521031 128.7955628 15.25386047 128.78260422 C13.24758254 128.77926737 11.2412781 128.78336704 9.23503113 128.79500198 C6.43119891 128.80769368 3.62936671 128.78835763 0.82568359 128.76049805 C-0.00456833 128.7706192 -0.83482025 128.78074036 -1.69023132 128.79116821 C-5.28393502 128.72497059 -7.50336909 128.41708716 -10.43261719 126.27487183 C-12.67238375 121.50943356 -12.47549162 117.0903921 -12.43603516 111.88500977 C-12.44304443 110.75114334 -12.45005371 109.61727692 -12.45727539 108.4490509 C-12.47487846 104.70154318 -12.46322357 100.95479078 -12.44970703 97.20727539 C-12.45240126 94.60322932 -12.4562831 91.99918423 -12.46130371 89.3951416 C-12.46857484 83.9377423 -12.4590067 78.48055973 -12.43994141 73.02319336 C-12.41817338 66.71950266 -12.42522515 60.41632951 -12.44724703 54.11265135 C-12.46760624 48.04120251 -12.46542593 41.96998259 -12.45372009 35.89851379 C-12.45105032 33.31809924 -12.45433132 30.73767149 -12.46363831 28.15727234 C-12.47378829 24.55183849 -12.45832258 20.94740062 -12.43603516 17.34204102 C-12.44818054 15.73973381 -12.44818054 15.73973381 -12.46057129 14.10505676 C-12.37763855 6.86928675 -12.37763855 6.86928675 -10.0111084 2.97424316 C-6.57558625 -0.08051179 -4.52787904 -0.00916575 0 0 Z " fill="#F27B17" transform="translate(26.91845703125,10.886474609375)"/>
<path d="M0 0 C0.80448578 -0.00960754 1.60897156 -0.01921509 2.43783569 -0.02911377 C3.30349152 -0.03336365 4.16914734 -0.03761353 5.06103516 -0.04199219 C5.95496979 -0.04769226 6.84890442 -0.05339233 7.76992798 -0.05926514 C9.66122251 -0.06870975 11.55253347 -0.07524698 13.44384766 -0.07910156 C16.33216141 -0.08880692 19.2197634 -0.11983505 22.10791016 -0.15136719 C23.9464476 -0.15789755 25.78499013 -0.16314789 27.62353516 -0.16699219 C28.48514252 -0.17933899 29.34674988 -0.19168579 30.23446655 -0.20440674 C34.93872055 -0.18699418 38.22939027 -0.01362085 41.97509766 3.16113281 C44.57831391 6.90524386 44.26380849 10.95634438 44.24975586 15.33862305 C44.25486679 16.16022919 44.25997772 16.98183533 44.26524353 17.82833862 C44.27913493 20.54220886 44.27818313 23.25582502 44.27587891 25.96972656 C44.27976604 27.85775344 44.28410074 29.74577945 44.28886414 31.63380432 C44.29632533 35.59061518 44.29603575 39.54733682 44.29077148 43.50415039 C44.28497647 48.57285991 44.30190912 53.64120406 44.32511616 58.70985317 C44.33985305 62.60893385 44.34072526 66.50792652 44.33760643 70.40703011 C44.33811965 72.27572414 44.34335746 74.14442311 44.35341835 76.01309013 C44.36576481 78.62705049 44.35900202 81.24029896 44.34741211 83.85424805 C44.35505585 84.62480026 44.36269958 85.39535248 44.37057495 86.18925476 C44.32658344 90.68163161 43.77010965 93.59554946 40.97509766 97.16113281 C38.65451493 98.32142417 37.26530992 98.30563594 34.68066406 98.33813477 C33.79279205 98.35097 32.90492004 98.36380524 31.99014282 98.37702942 C31.02869354 98.38441635 30.06724426 98.39180328 29.07666016 98.39941406 C28.09015472 98.40748581 27.10364929 98.41555756 26.08724976 98.4238739 C23.99747478 98.43771819 21.90767715 98.4484388 19.81787109 98.45629883 C16.6198455 98.47352643 13.4228496 98.51741142 10.22509766 98.56152344 C8.19645944 98.5716489 6.16781242 98.58016546 4.13916016 98.58691406 C2.70305893 98.61317619 2.70305893 98.61317619 1.23794556 98.63996887 C-5.26472602 98.61869342 -5.26472602 98.61869342 -8.65283203 96.5793457 C-10.5562772 93.22460827 -10.34771861 90.88283498 -10.14208984 87.04394531 C-10.09742217 85.62342211 -10.05729942 84.20275021 -10.02124023 82.78198242 C-9.99917511 82.04575653 -9.97710999 81.30953064 -9.95437622 80.55099487 C-9.37283971 66.10393444 -9.37283971 66.10393444 -16.09375 53.84228516 C-18.95265345 51.34188246 -21.8060186 49.18383782 -25.02490234 47.16113281 C-23.71887822 43.56340598 -21.63307896 42.09721714 -18.63208008 39.86230469 C-14.42392527 36.51990128 -11.5007951 33.53373275 -10.41552734 28.12304688 C-9.82263868 21.349684 -9.92347194 14.59742679 -10.2668457 7.81152344 C-9.97895445 4.65779244 -9.22892573 3.40066884 -7.02490234 1.16113281 C-4.34052382 0.26633997 -2.75623568 0.02663333 0 0 Z M-1.02490234 9.16113281 C-1.02490234 33.58113281 -1.02490234 58.00113281 -1.02490234 83.16113281 C10.85509766 83.16113281 22.73509766 83.16113281 34.97509766 83.16113281 C34.97509766 58.74113281 34.97509766 34.32113281 34.97509766 9.16113281 C23.09509766 9.16113281 11.21509766 9.16113281 -1.02490234 9.16113281 Z " fill="#F27E1C" transform="translate(93.02490234375,10.8388671875)"/>
<path d="M0 0 C0.042721 1.66611905 0.04063832 3.33382885 0 5 C-1 6 -1 6 -3.5 6.125 C-6 6 -6 6 -7 5 C-7.04063832 3.33382885 -7.042721 1.66611905 -7 0 C-4.3333581 -1.33332095 -2.83319697 -0.67102033 0 0 Z " fill="#FEF4EC" transform="translate(68,129)"/>
<path d="M0 0 C2.625 0.375 2.625 0.375 5 1 C5.042721 2.66611905 5.04063832 4.33382885 5 6 C4 7 4 7 1.4375 7.0625 C0.2309375 7.0315625 0.2309375 7.0315625 -1 7 C-1.625 4.625 -1.625 4.625 -2 2 C-1.34 1.34 -0.68 0.68 0 0 Z " fill="#FEF6EF" transform="translate(108,98)"/>
</svg>
