<?xml version="1.0" encoding="UTF-8"?>
<svg version="1.1" xmlns="http://www.w3.org/2000/svg" width="152" height="152">
<path d="M0 0 C50.16 0 100.32 0 152 0 C152 50.16 152 100.32 152 152 C101.84 152 51.68 152 0 152 C0 101.84 0 51.68 0 0 Z " fill="#FEFEFD" transform="translate(0,0)"/>
<path d="M0 0 C2.98276318 0.80942848 4.41061869 2.17671713 6.6652832 4.28808594 C7.53886475 5.10446533 8.41244629 5.92084473 9.3125 6.76196289 C10.30067856 7.71120321 11.28663978 8.66275549 12.27075195 9.61621094 C12.80963043 10.13782806 13.34850891 10.65944519 13.90371704 11.1968689 C17.48413878 14.67700014 21.03042134 18.19010231 24.56079102 21.72094727 C26.42227114 23.58019837 28.2916735 25.43124933 30.16137695 27.28222656 C31.34675929 28.46468176 32.53167342 29.64760656 33.71606445 30.83105469 C34.27528595 31.38309067 34.83450745 31.93512665 35.41067505 32.50389099 C39.27075195 36.38733287 39.27075195 36.38733287 39.27075195 38.61621094 C33.33075195 38.61621094 27.39075195 38.61621094 21.27075195 38.61621094 C21.30555664 41.36191406 21.34036133 44.10761719 21.3762207 46.93652344 C21.39964341 49.60741131 21.41784452 52.27828756 21.43554688 54.94921875 C21.45059666 56.79985712 21.47104129 58.65046005 21.49707031 60.50097656 C21.53362175 63.16708139 21.55051649 65.83271302 21.5637207 68.49902344 C21.57920456 69.32113312 21.59468842 70.1432428 21.61064148 70.99026489 C21.61207349 75.92193029 21.1471587 79.41960825 18.27075195 83.61621094 C12.9912563 87.92786559 6.91384454 87.13884244 0.40576172 87.1171875 C-1.65823886 87.11621495 -3.71851776 87.15787336 -5.78198242 87.20214844 C-16.89491231 87.22399203 -16.89491231 87.22399203 -20.6081543 84.20996094 C-23.2346654 80.99816835 -23.85485479 79.5688648 -23.84277344 75.53369141 C-23.84269791 74.69297089 -23.84262238 73.85225037 -23.84254456 72.98605347 C-23.83738327 72.07767731 -23.83222198 71.16930115 -23.8269043 70.23339844 C-23.82548935 69.30399445 -23.8240744 68.37459045 -23.82261658 67.41702271 C-23.81700857 64.44171969 -23.80445472 61.46649129 -23.79174805 58.49121094 C-23.78673408 56.47688911 -23.78217099 54.4625661 -23.77807617 52.44824219 C-23.76703654 47.50420292 -23.74976654 42.56021959 -23.72924805 37.61621094 C-29.66924805 37.61621094 -35.60924805 37.61621094 -41.72924805 37.61621094 C-36.6016345 30.1255988 -30.33221573 23.94788747 -23.90576172 17.58691406 C-22.03050948 15.73008277 -20.16354752 13.86520793 -18.29760742 11.99902344 C-17.10472142 10.81104792 -15.91137837 9.62353112 -14.7175293 8.43652344 C-14.16124344 7.8813504 -13.60495758 7.32617737 -13.03181458 6.75418091 C-5.99423163 -0.19721866 -5.99423163 -0.19721866 0 0 Z " fill="#F17003" transform="translate(105.729248046875,7.3837890625)"/>
<path d="M0 0 C1.44905704 -0.01652178 2.89803384 -0.04376266 4.34667969 -0.08203125 C6.44394873 -0.13710911 8.53930991 -0.15871937 10.63720703 -0.17333984 C11.89178711 -0.19315918 13.14636719 -0.21297852 14.43896484 -0.23339844 C19.05828419 0.53777879 20.64339559 2.07728868 23.93408203 5.35009766 C25.65210585 8.7861453 25.05374383 12.73448661 25.03173828 16.51416016 C25.03032333 17.4213681 25.02890839 18.32857605 25.02745056 19.26327515 C25.02184299 22.16724921 25.00928921 25.07114681 24.99658203 27.97509766 C24.99156801 29.94124238 24.98700493 31.90738831 24.98291016 33.87353516 C24.97272102 38.69910931 24.9531471 43.52451766 24.93408203 48.35009766 C31.20408203 48.35009766 37.47408203 48.35009766 43.93408203 48.35009766 C37.16459377 56.24783396 37.16459377 56.24783396 34.6418457 58.8828125 C34.07072556 59.47967865 33.49960541 60.0765448 32.91117859 60.6914978 C30.33724556 63.3513784 27.75228936 66.00015696 25.15844727 68.640625 C23.79776784 70.03310743 22.44521644 71.43357774 21.10083008 72.84179688 C19.14119088 74.89284295 17.15638827 76.91630236 15.16455078 78.93603516 C14.5736113 79.56512787 13.98267181 80.19422058 13.37382507 80.84237671 C9.52720023 84.67161987 6.46511175 86.342612 0.97377014 86.56854248 C-2.17786836 86.23101092 -3.56750025 85.03967611 -5.74560547 82.78369141 C-6.99422363 81.53628174 -6.99422363 81.53628174 -8.26806641 80.26367188 C-8.71323608 79.79789734 -9.15840576 79.3321228 -9.61706543 78.85223389 C-11.17622678 77.23573208 -12.77533391 75.66839495 -14.38720703 74.10449219 C-17.40127656 71.17548248 -20.38433508 68.21738333 -23.35595703 65.24536133 C-25.21743716 63.38611023 -27.08683951 61.53505927 -28.95654297 59.68408203 C-30.14192531 58.50162683 -31.32683944 57.31870203 -32.51123047 56.13525391 C-33.07045197 55.58321793 -33.62967346 55.03118195 -34.20584106 54.4624176 C-38.06591797 50.57897573 -38.06591797 50.57897573 -38.06591797 48.35009766 C-32.12591797 48.35009766 -26.18591797 48.35009766 -20.06591797 48.35009766 C-20.12392578 45.46001953 -20.18193359 42.56994141 -20.24169922 39.59228516 C-20.28073164 36.78241722 -20.31106947 33.97257987 -20.34057617 31.16259766 C-20.36566743 29.21486822 -20.39974858 27.26723246 -20.44311523 25.31982422 C-20.50400546 22.51457575 -20.53218128 19.71057558 -20.55419922 16.90478516 C-20.58000565 16.03892792 -20.60581207 15.17307068 -20.63240051 14.28097534 C-20.6343738 9.99431321 -20.41157926 7.21677926 -17.66040039 3.81542969 C-12.57131851 -1.02032347 -6.65116725 0.05553897 0 0 Z " fill="#F16F02" transform="translate(49.06591796875,56.64990234375)"/>
</svg>
