<?xml version="1.0" encoding="UTF-8"?>
<svg version="1.1" xmlns="http://www.w3.org/2000/svg" width="152" height="152">
<path d="M0 0 C1.22396484 -0.020625 2.44792969 -0.04125 3.70898438 -0.0625 C5.48692383 -0.07023437 5.48692383 -0.07023437 7.30078125 -0.078125 C8.92173706 -0.09214355 8.92173706 -0.09214355 10.57543945 -0.10644531 C15.05411575 0.40652773 18.45831074 1.89365323 21.5 5.25 C24.14580433 9.70609151 23.81602885 14.06409319 23.78515625 19.07421875 C23.7837413 19.93561966 23.78232635 20.79702057 23.78086853 21.68452454 C23.7752714 24.43555169 23.76271946 27.18649744 23.75 29.9375 C23.74498463 31.8027332 23.74042179 33.66796767 23.73632812 35.53320312 C23.72615384 40.10552534 23.70657787 44.67767155 23.6875 49.25 C29.6275 49.25 35.5675 49.25 41.6875 49.25 C39.69970062 51.59458388 37.69898724 53.92580256 35.6875 56.25 C35.11515625 56.91773438 34.5428125 57.58546875 33.953125 58.2734375 C28.48402134 64.50821567 22.66639994 70.37800369 16.8125 76.25 C15.96727783 77.09981445 15.12205566 77.94962891 14.2512207 78.82519531 C13.449021 79.62538086 12.64682129 80.42556641 11.8203125 81.25 C11.09730957 81.971875 10.37430664 82.69375 9.62939453 83.4375 C6.17829045 86.65864618 3.63091022 87.87778322 -1.14855957 87.75918579 C-3.85642778 87.12201113 -5.08598653 86.04608983 -7.12304688 84.16552734 C-7.81736816 83.52871033 -8.51168945 82.89189331 -9.22705078 82.23577881 C-12.40834006 79.2065337 -15.55511122 76.15040974 -18.65625 73.0390625 C-19.63809265 72.05865494 -19.63809265 72.05865494 -20.63977051 71.05844116 C-22.00554063 69.69334531 -23.37007393 68.32701096 -24.73339844 66.95947266 C-26.83153621 64.85591462 -28.93504298 62.75782954 -31.0390625 60.66015625 C-32.37011296 59.32844606 -33.70085377 57.99642628 -35.03125 56.6640625 C-35.66236694 56.03496979 -36.29348389 55.40587708 -36.94372559 54.75772095 C-41.3125 50.36498854 -41.3125 50.36498854 -41.3125 49.25 C-35.3725 49.25 -29.4325 49.25 -23.3125 49.25 C-23.36470703 45.13144531 -23.36470703 45.13144531 -23.41796875 40.9296875 C-23.44139146 38.25879963 -23.45959257 35.58792338 -23.47729492 32.91699219 C-23.49234471 31.06635381 -23.51278933 29.21575089 -23.53881836 27.36523438 C-23.5753698 24.69912955 -23.59226454 22.03349792 -23.60546875 19.3671875 C-23.62095261 18.54507782 -23.63643646 17.72296814 -23.65238953 16.87594604 C-23.65383138 11.9103794 -23.03917664 8.56644389 -20.3125 4.25 C-14.45840167 -1.05527661 -7.44694328 0.03107749 0 0 Z " fill="#F1730A" transform="translate(51.3125,55.75)"/>
<path d="M0 0 C3.10092001 2.44092068 5.81269756 5.20640966 8.55859375 8.03515625 C9.34774673 8.8290123 10.13689972 9.62286835 10.94996643 10.44078064 C13.45775348 12.96985977 15.94733865 15.5160774 18.4375 18.0625 C20.13887531 19.78038566 21.84133777 21.49719535 23.54492188 23.21289062 C26.63836395 26.34028622 29.73150129 29.46788381 32.80639648 32.61352539 C33.42481918 33.2448085 34.04324188 33.87609161 34.68040466 34.52650452 C36 36 36 36 36 37 C29.73 37 23.46 37 17 37 C17.05800781 39.89007813 17.11601563 42.78015625 17.17578125 45.7578125 C17.21481367 48.56768044 17.2451515 51.37751778 17.2746582 54.1875 C17.29974946 56.13522943 17.33383061 58.0828652 17.37719727 60.03027344 C17.43808749 62.8355219 17.46626331 65.63952208 17.48828125 68.4453125 C17.51408768 69.31116974 17.5398941 70.17702698 17.56648254 71.06912231 C17.56844319 75.32831698 17.35394719 78.12507802 14.62988281 81.51245117 C8.73330966 87.08989119 1.74230807 86.33578626 -5.9375 86.3125 C-6.99646484 86.32861328 -8.05542969 86.34472656 -9.14648438 86.36132812 C-16.01986843 86.36561595 -21.34014702 85.92788238 -26.875 81.5 C-28.90801169 78.78931774 -29.12380948 76.24760474 -29.11352539 72.98754883 C-29.11344986 72.18694534 -29.11337433 71.38634186 -29.11329651 70.56147766 C-29.10813522 69.70201035 -29.10297394 68.84254303 -29.09765625 67.95703125 C-29.0962413 67.0734343 -29.09482635 66.18983734 -29.09336853 65.27946472 C-29.08777069 62.45710872 -29.07521861 59.63483203 -29.0625 56.8125 C-29.05748472 54.89908969 -29.05292186 52.98567813 -29.04882812 51.07226562 C-29.03865283 46.38145527 -29.01907698 41.69081642 -29 37 C-34.94 37 -40.88 37 -47 37 C-45.33431405 33.6686281 -44.32548851 32.0711754 -41.82299805 29.54833984 C-40.85640511 28.56744888 -40.85640511 28.56744888 -39.87028503 27.56674194 C-38.82654472 26.52436874 -38.82654472 26.52436874 -37.76171875 25.4609375 C-37.04393753 24.73887115 -36.32615631 24.01680481 -35.58662415 23.27285767 C-34.06852246 21.74901828 -32.54780007 20.22778589 -31.0246582 18.70898438 C-28.69788594 16.38537184 -26.38474523 14.04876407 -24.07226562 11.7109375 C-22.59456141 10.23096022 -21.11607151 8.75176693 -19.63671875 7.2734375 C-18.94696457 6.57447357 -18.25721039 5.87550964 -17.54655457 5.15536499 C-12.09206671 -0.24716176 -7.66765245 -4.04934169 0 0 Z " fill="#F17208" transform="translate(110,9)"/>
</svg>
