<?xml version="1.0" encoding="UTF-8"?><svg id="Layer_1" xmlns="http://www.w3.org/2000/svg" viewBox="0 0 30 23"><path d="M28.5,8h-1.5V1.5c0-.83-.67-1.5-1.5-1.5H1.5C.67,0,0,.67,0,1.5v16c0,.83.67,1.5,1.5,1.5h8.36l-.75,3h-1.61c-.28,0-.5.22-.5.5s.22.5.5.5h21c.83,0,1.5-.67,1.5-1.5v-12c0-.83-.67-1.5-1.5-1.5ZM1,17.5V1.5c0-.28.22-.5.5-.5h24c.28,0,.5.22.5.5v3.59c-.16-.06-.33-.09-.5-.09h-11c-.83,0-1.5.67-1.5,1.5v11.5H1.5c-.28,0-.5-.22-.5-.5ZM10.14,22l.75-3h2.11v2.5c0,.17.03.34.09.5h-2.95ZM15.5,22h-1c-.28,0-.5-.22-.5-.5V6.5c0-.28.22-.5.5-.5h11c.28,0,.5.22.5.5v1.5h-2.5c-.83,0-1.5.67-1.5,1.5v12c0,.17.03.34.09.5h-6.59ZM29,21.5c0,.28-.22.5-.5.5h-5c-.28,0-.5-.22-.5-.5v-12c0-.28.22-.5.5-.5h5c.28,0,.5.22.5.5v12Z"/><path d="M26.5,20h-1c-.28,0-.5.22-.5.5s.22.5.5.5h1c.28,0,.5-.22.5-.5s-.22-.5-.5-.5Z"/><path d="M18.5,21h2c.28,0,.5-.22.5-.5s-.22-.5-.5-.5h-2c-.28,0-.5.22-.5.5s.22.5.5.5Z"/></svg>