<svg width="450" height="159" viewBox="0 0 450 159" fill="none" xmlns="http://www.w3.org/2000/svg">
<path d="M5.53866 81.9816L3.90039 25.9063L38.6055 23.7856L50.0786 58.313L43.2372 60.4362L48.7995 75.6536L5.53866 81.9816Z" fill="#FF7900"/>
<path d="M76.5794 133.028C80.9281 133.14 84.3645 136.74 84.2492 141.07C84.1364 145.4 80.5191 148.817 76.1679 148.704L69.6804 148.535C65.3291 148.425 61.8953 144.823 62.0106 140.493C62.1233 136.163 65.7433 132.749 70.0919 132.861L76.5794 133.028Z" fill="black"/>
<path d="M106.603 88.3042C114.38 89.8379 117.759 99.309 114.194 105.903C112.768 108.54 111.006 110.95 108.411 112.547C104.314 115.069 98.7103 113.272 95.6067 117.662C93.3708 120.826 94.3014 123.786 95.342 127.211C96.1152 129.757 96.8964 132.754 95.8033 135.323C94.6893 137.942 91.6513 140.394 88.8702 140.926C85.6775 141.536 82.1283 140.856 79.1899 139.549" stroke="#1D1D1B" stroke-miterlimit="10"/>
<path d="M38.5243 43.0381C38.7812 43.7945 39.6881 46.4003 37.2189 47.0289C35.7956 47.3889 34.9988 46.5438 34.3382 45.8212C34.1521 45.6204 34.042 45.3961 33.9398 45.1431C33.8664 44.9527 33.7982 44.6579 33.9843 44.504C34.2045 44.324 34.3251 44.5614 34.3933 44.7309C34.9778 46.1916 33.6462 48.1818 32.194 48.5627C30.6501 48.967 29.0905 47.981 28.5898 45.8239" stroke="#1D1D1B" stroke-width="2" stroke-miterlimit="10"/>
<path d="M50.6027 140.762L58.9959 124.115L21.1925 88.5498L17.4966 91.033L50.6027 140.762Z" fill="black"/>
<path d="M47.6278 72.5312L5.44434 79.2426L7.64355 150.126L59.1743 97.0632L47.6278 72.5312Z" fill="black"/>
<path d="M27.7798 75.6513L51.2451 105.186L47.6278 72.5029L27.7798 75.6513Z" fill="white"/>
<path d="M63.604 32.7871L61.5044 90.104L107.911 97.298L115.14 39.5168L63.604 32.7871Z" fill="black"/>
<path d="M68.5005 40.2134L65.4678 81.9816L103.014 88.7113L107.911 43.9251L68.5005 40.2134Z" fill="white"/>
<path d="M44.2568 63.1984C44.2568 63.1984 27.4756 72.2209 15.5674 59.4736" stroke="#1D1D1B" stroke-width="2" stroke-miterlimit="10"/>
<path d="M61.2111 99.7344L55.8062 113.322L91.7537 120.748L96.4248 106.464L61.2111 99.7344Z" fill="black"/>
<path d="M64.076 99.21L59.5229 115.867" stroke="white" stroke-miterlimit="10"/>
<path d="M69.9789 100.115L65.4258 116.546" stroke="white" stroke-miterlimit="10"/>
<path d="M75.8087 101.315L72.0708 113.603" stroke="white" stroke-miterlimit="10"/>
<path d="M80.9985 101.56L77.1978 114.571" stroke="white" stroke-miterlimit="10"/>
<path d="M85.4497 102.666L79.7695 119.72" stroke="white" stroke-miterlimit="10"/>
<path d="M90.6447 104.406L84.3433 120.948" stroke="white" stroke-miterlimit="10"/>
<path d="M59.9868 102.601L96.7758 110.056" stroke="white" stroke-miterlimit="10"/>
<path d="M57.7168 106.44L94.8439 112.875" stroke="white" stroke-miterlimit="10"/>
<path d="M55.6724 110.51L93.6068 117.427" stroke="white" stroke-miterlimit="10"/>
<path d="M316.503 50.5947L317.927 108.379L268.794 115.82L264.598 55.1829L316.503 50.5947Z" fill="black"/>
<path d="M311.693 55.7803L311.848 101.829L273.691 107.233L269.408 60.9658L311.693 55.7803Z" fill="white"/>
<path d="M314.734 111.645L318.233 126.03L283.649 132.7L279.523 118.374L314.734 111.645Z" fill="black"/>
<path d="M310.852 111.352L315.169 127.754" stroke="white" stroke-miterlimit="10"/>
<path d="M305.966 112.022L310.461 128.664" stroke="white" stroke-miterlimit="10"/>
<path d="M298.011 114.055L301.872 126.035" stroke="white" stroke-miterlimit="10"/>
<path d="M301.803 113.666L305.622 125.279" stroke="white" stroke-miterlimit="10"/>
<path d="M293.476 113.83L297.25 126.58" stroke="white" stroke-miterlimit="10"/>
<path d="M289.615 115.414L294.506 131.528" stroke="white" stroke-miterlimit="10"/>
<path d="M284.042 115.779L289.274 132.958" stroke="white" stroke-miterlimit="10"/>
<path d="M315.958 114.508L279.169 121.966" stroke="white" stroke-miterlimit="10"/>
<path d="M318.228 118.351L280.771 125.8" stroke="white" stroke-miterlimit="10"/>
<path d="M320.273 122.417L281.033 129.835" stroke="white" stroke-miterlimit="10"/>
<path d="M7.94758 54.8572C7.94758 57.043 6.16776 58.8115 3.97379 58.8115C1.77982 58.8115 0 57.043 0 54.8572C0 52.6713 1.77982 50.9028 3.97379 50.9028C6.16776 50.9028 7.94758 52.6739 7.94758 54.8572Z" fill="#FF7900"/>
<path d="M79.6068 57.8096L78.3486 65.2931L91.08 67.3824L92.325 59.3903L79.6068 57.8096Z" fill="black"/>
<path d="M88.7363 63.7466L89.4179 71.2014L91.2947 70.3771L92.5974 73.4629L94.6603 72.4847L92.891 69.6546L95.2108 68.4704L88.7363 63.7466Z" fill="#FF7900"/>
<path d="M38.6055 23.7856C38.6055 23.7856 34.2962 37.8762 7.38139 28.8694C11.059 32.5864 17.1166 41.9766 4.63171 50.9547C4.17824 43.8364 3.90039 25.9063 3.90039 25.9063L38.6055 23.7856Z" fill="black"/>
<path d="M391.725 92.2171L409.009 38.8207L376.278 27.1533L357.937 54.205L362.495 57.2281L351.953 74.1384L391.725 92.2171Z" fill="#FF7900"/>
<path d="M432.498 86.5752L433.628 104.784L376.338 102.218L377.751 96.534L432.498 86.5752Z" fill="black"/>
<path d="M350.338 76.3135L388.986 94.4862L365.549 159L319.586 104.99L350.338 76.3135Z" fill="black"/>
<path d="M372.812 86.2515L331.397 112.675L350.474 75.7788L372.812 86.2515Z" fill="white"/>
<path d="M418.965 35.0515L395.282 18.5664L404.768 20.4236L422.362 29.9442L418.965 35.0515Z" fill="black"/>
<path d="M420.514 26.5272L425.022 21.0626L418.346 16.4771L410.139 17.9717L420.514 26.5272Z" fill="black"/>
<path d="M396.663 63.9366C396.05 66.0337 397.263 68.2274 399.371 68.8351C401.478 69.4455 403.683 68.2378 404.296 66.1406C404.909 64.0435 403.696 61.8472 401.588 61.2395C399.481 60.6317 397.276 61.8368 396.666 63.9366H396.663Z" fill="#FF7900"/>
<path d="M409.027 38.8442C396.983 41.6091 397.504 55.6162 401.882 60.8826C404.312 54.1738 408.013 42.1699 409.027 38.8442Z" fill="black"/>
<path d="M357.722 60.9448C357.722 60.9448 367.038 70.009 388.055 65.6947C383.601 70.6272 373.932 83.5283 352.131 70.4211L357.722 60.9448Z" fill="white"/>
<path d="M33.6357 74.7303L41.2976 80.0853L43.1613 73.2227C43.1613 73.2227 34.4641 74.5242 33.6384 74.7303H33.6357Z" fill="black"/>
<path d="M41.7114 81.3242L42.7442 95.1279L51.2448 105.186L50.6131 95.54L41.7114 81.3242Z" fill="black"/>
<path d="M352.131 76.812L348.818 83.8155L357.722 82.5792L352.131 76.812Z" fill="black"/>
<path d="M359.13 83.8101H367.416L361.473 91.2962L359.13 83.8101Z" fill="black"/>
<path d="M357.306 79.4883L354.616 84.6399L357.929 86.0823L361.243 81.961L357.306 79.4883Z" fill="black"/>
<path d="M340.328 85.8762L334.325 25.0953L351.51 23.0347L343.437 84.0216L340.328 85.8762Z" fill="black"/>
<path d="M79.6069 57.8096L85.1456 63.0785L92.8101 59.2651" stroke="white" stroke-width="2" stroke-miterlimit="10"/>
<path d="M370.962 48.9125C370.962 49.5307 370.459 50.0289 369.84 50.0289C369.222 50.0289 368.716 49.528 368.716 48.9125C368.716 48.2969 369.219 47.7935 369.84 47.7935C370.462 47.7935 370.962 48.2943 370.962 48.9125Z" fill="black"/>
<path d="M375.405 50.154C375.405 50.7722 374.902 51.2704 374.281 51.2704C373.659 51.2704 373.159 50.7696 373.159 50.154C373.159 49.5384 373.662 49.0376 374.281 49.0376C374.899 49.0376 375.405 49.5384 375.405 50.154Z" fill="black"/>
<path d="M272.532 65.1495L278.417 64.5" stroke="#1D1D1B" stroke-miterlimit="10"/>
<path d="M272.008 66.7121L282.603 65.6714" stroke="#1D1D1B" stroke-miterlimit="10"/>
<path d="M272.401 72.3071L306.144 68.5327" stroke="#1D1D1B" stroke-miterlimit="10"/>
<path d="M273.185 74.7799L302.482 71.9185" stroke="#1D1D1B" stroke-miterlimit="10"/>
<path d="M273.578 80.8992L306.406 78.0352" stroke="#1D1D1B" stroke-miterlimit="10"/>
<path d="M275.801 83.2388L301.83 80.5078" stroke="#1D1D1B" stroke-miterlimit="10"/>
<path d="M275.148 86.2331L306.784 81.9214" stroke="#1D1D1B" stroke-miterlimit="10"/>
<path d="M275.541 89.4882L289.926 87.9258" stroke="#1D1D1B" stroke-miterlimit="10"/>
<path d="M302.608 85.4248C302.608 85.4248 292.724 86.9246 290.545 94.7603C288.367 94.5933 285.101 94.2594 285.101 94.2594L291.68 101.328C291.68 101.328 293.311 90.759 302.608 85.4248Z" fill="#FF7900"/>
<path d="M320.713 78.6457L338.157 78.1162" stroke="#EE7D00" stroke-width="2" stroke-miterlimit="10"/>
<path d="M281.463 48.6594L278.425 1.03271" stroke="#EE7D00" stroke-width="2" stroke-miterlimit="10"/>
<path d="M273.867 47.3996L261.712 5.82178" stroke="#EE7D00" stroke-width="2" stroke-miterlimit="10"/>
<path d="M263.99 51.4319L241.201 20.9424" stroke="#EE7D00" stroke-width="2" stroke-miterlimit="10"/>
<path d="M254.367 57.4785L225.5 38.3276" stroke="#EE7D00" stroke-width="2" stroke-miterlimit="10"/>
<path d="M252.215 72.5968L207.14 55.9683" stroke="#EE7D00" stroke-width="2" stroke-miterlimit="10"/>
<path d="M253.607 81.9219L209.038 84.4416" stroke="#EE7D00" stroke-width="2" stroke-miterlimit="10"/>
<path d="M252.341 92.0005L205.749 100.316" stroke="#EE7D00" stroke-width="2" stroke-miterlimit="10"/>
<path d="M251.835 104.096L204.988 113.168" stroke="#EE7D00" stroke-width="2" stroke-miterlimit="10"/>
<path d="M291.591 47.6526L296.401 0.0258789" stroke="#EE7D00" stroke-width="2" stroke-miterlimit="10"/>
<path d="M305.772 44.627L318.687 4.05859" stroke="#EE7D00" stroke-width="2" stroke-miterlimit="10"/>
<path d="M317.927 46.643L329.07 27.4922" stroke="#EE7D00" stroke-width="2" stroke-miterlimit="10"/>
<path d="M320.967 56.9751L334.64 49.6689" stroke="#EE7D00" stroke-width="2" stroke-miterlimit="10"/>
<path d="M321.471 67.8102L336.16 64.2837" stroke="#EE7D00" stroke-width="2" stroke-miterlimit="10"/>
<path d="M322.485 85.9541L331.347 87.214" stroke="#EE7D00" stroke-width="2" stroke-miterlimit="10"/>
<path d="M401.88 60.877L390.603 71.8426L397.232 75.2831L401.88 60.877Z" fill="black"/>
<path d="M372.545 32.6101L409.028 38.8442L376.278 27.1533L372.545 32.6101Z" fill="black"/>
<path d="M347.639 21.4096L348.034 8.37021L344.902 7.79897L344.197 8.8971L343.492 7.71289L340.577 7.79897L340.401 9.02752L339.521 7.97634L336.564 8.63365L336.829 9.99524L335.814 9.07186L333.562 9.90655L336.475 22.8572L347.639 21.4096Z" fill="#FF7900"/>
<path d="M435.106 89.971L447.84 86.8696L449.054 89.7989L448.12 90.7144L449.434 91.1552L449.953 94.0088L448.781 94.434L450 95.0756L449.968 98.0883L448.576 98.1144L449.693 98.91L449.342 101.273L436.005 101.135L435.106 89.971Z" fill="#FF7900"/>
<path d="M350.912 15.9761L349.667 11.4427L341.138 10.4385C341.138 10.4385 341.347 13.6729 345.193 14.3693C345.193 14.3693 340.773 16.3439 340.739 22.4345C344.907 21.9572 347.46 21.605 347.46 21.605L350.915 15.9761H350.912Z" fill="#FF7900"/>
<path d="M136.464 70.2544C140.87 70.5022 141.072 70.7031 141.324 75.0878C141.573 70.7031 141.774 70.5022 146.181 70.2544C141.774 70.004 141.573 69.8032 141.324 65.4185C141.075 69.8032 140.87 70.004 136.464 70.2544Z" fill="black"/>
<path d="M164.199 76.8903C168.606 77.1381 168.807 77.339 169.059 81.7237C169.308 77.3416 169.51 77.1407 173.916 76.8903C169.51 76.6425 169.308 76.4417 169.059 72.0596C168.81 76.4417 168.606 76.6425 164.199 76.8903Z" fill="#FF7900"/>
<path d="M206.398 72.0438C209.4 72.2133 209.536 72.3515 209.706 75.3356C209.874 72.3489 210.013 72.2133 213.014 72.0438C210.013 71.8768 209.877 71.7386 209.706 68.752C209.536 71.7386 209.4 71.8742 206.398 72.0438Z" fill="#FF7900"/>
<path d="M199.767 75.3095C203.119 75.4973 203.274 75.6512 203.463 78.9847C203.651 75.6512 203.803 75.4973 207.156 75.3095C203.803 75.1217 203.649 74.9678 203.463 71.6343C203.271 74.9678 203.119 75.1217 199.767 75.3095Z" fill="black"/>
<path d="M174.341 73.8359C177.518 74.0133 177.665 74.1593 177.845 77.3207C178.024 74.1593 178.17 74.0159 181.347 73.8359C178.17 73.6559 178.024 73.5125 177.845 70.3511C177.665 73.5125 177.52 73.6559 174.341 73.8359Z" fill="black"/>
<path d="M185.458 83.6328C188.634 83.8101 188.781 83.9562 188.962 87.115C189.14 83.9536 189.287 83.8101 192.464 83.6328C189.287 83.4528 189.14 83.3067 188.962 80.1479C188.781 83.3093 188.634 83.4528 185.458 83.6328Z" fill="#FF7900"/>
<path d="M150.33 86.3691C153.683 86.5569 153.835 86.7108 154.026 90.0443C154.215 86.7108 154.369 86.5569 157.719 86.3691C154.367 86.1813 154.215 86.0274 154.026 82.6938C153.835 86.03 153.683 86.1813 150.33 86.3691Z" fill="#FF7900"/>
<path d="M130.065 63.7436C133.418 63.9314 133.57 64.0853 133.761 67.4188C133.95 64.0853 134.105 63.9314 137.455 63.7436C134.102 63.5558 133.95 63.4019 133.761 60.0684C133.57 63.4045 133.418 63.5558 130.065 63.7436Z" fill="#FF7900"/>
<path d="M115.122 39.5273L121.295 54.4552L117.117 94.3324L107.869 97.3059L115.122 39.5273Z" fill="#8F8F8F"/>
<path d="M264.597 55.1831L256.38 61.9623L259.937 106.24L268.794 115.82" fill="#8F8F8F"/>
<path d="M59.6673 130.735L71.122 129.875L76.3488 133.025L71.5388 132.911L69.0041 132.9L78.9857 135.822L79.4025 140.759L69.24 137.421L80.5978 142.27L79.7223 145.381L68.4091 140.929L76.084 145.418L74.008 147.998L66.8547 143.407L70.4825 148.874L67.7354 150.009L62.396 143.355L55.2505 137.877L59.6673 130.735Z" fill="#FF7900"/>
<path d="M434.941 89.9895L439.143 85.8135L444.48 85.9204L446.715 93.7639C446.715 93.7639 443.046 93.9152 442.102 89.7861C442.102 89.7861 439.837 95.8402 435.376 94.9768C435.284 93.8395 434.941 89.9921 434.941 89.9921V89.9895Z" fill="#FF7900"/>
</svg>