<svg xmlns="http://www.w3.org/2000/svg" viewBox="0 0 400 300">
  <defs>
    <linearGradient id="grad1" x1="0%" y1="0%" x2="100%" y2="100%">
      <stop offset="0%" style="stop-color:#FFF3E0;stop-opacity:1" />
      <stop offset="100%" style="stop-color:#FFFFFF;stop-opacity:1" />
    </linearGradient>
  </defs>
  <rect width="400" height="300" fill="url(#grad1)"/>
  
  <!-- Abstract shape resembling a service card or settings -->
  <circle cx="200" cy="150" r="80" fill="#FF7900" opacity="0.1"/>
  <circle cx="200" cy="150" r="60" fill="#FF7900" opacity="0.2"/>
  
  <!-- Gear / Service Icon -->
  <g transform="translate(170, 120) scale(0.6)">
    <path fill="#000000" d="M92.3 49.8c-1.3-4.3-3.3-8.4-5.9-12.1l7.6-7.6c1.6-1.6 1.6-4.2 0-5.8l-8.5-8.5c-1.6-1.6-4.2-1.6-5.8 0l-7.6 7.6c-3.7-2.6-7.8-4.6-12.1-5.9V7.6c0-2.2-1.8-4-4-4h-12c-2.2 0-4 1.8-4 4v9.9c-4.3 1.3-8.4 3.3-12.1 5.9l-7.6-7.6c-1.6-1.6-4.2-1.6-5.8 0l-8.5 8.5c-1.6 1.6-1.6 4.2 0 5.8l7.6 7.6c-2.6 3.7-4.6 7.8-5.9 12.1H7.6c-2.2 0-4 1.8-4 4v12c0 2.2 1.8 4 4 4h9.9c1.3 4.3 3.3 8.4 5.9 12.1l-7.6 7.6c-1.6 1.6-1.6 4.2 0 5.8l8.5 8.5c1.6 1.6 4.2 1.6 5.8 0l7.6-7.6c3.7 2.6 7.8 4.6 12.1 5.9v9.9c0 2.2 1.8 4 4 4h12c2.2 0 4-1.8 4-4v-9.9c4.3-1.3 8.4-3.3 12.1-5.9l7.6 7.6c1.6 1.6 4.2 1.6 5.8 0l8.5-8.5c1.6-1.6 1.6-4.2 0-5.8l-7.6-7.6c2.6-3.7 4.6-7.8 5.9-12.1h9.9c2.2 0 4-1.8 4-4v-12c0-2.2-1.8-4-4-4h-9.9zM50 70c-11 0-20-9-20-20s9-20 20-20 20 9 20 20-9 20-20 20z"/>
  </g>
  
  <!-- USSD Star/Hash decorative elements -->
  <text x="120" y="160" font-family="Arial" font-size="40" fill="#FF7900" font-weight="bold">*</text>
  <text x="260" y="160" font-family="Arial" font-size="40" fill="#FF7900" font-weight="bold">#</text>
</svg>