<?xml version="1.0" encoding="UTF-8"?>
<svg version="1.1" xmlns="http://www.w3.org/2000/svg" width="286" height="152">
<path d="M0 0 C94.38 0 188.76 0 286 0 C286 50.16 286 100.32 286 152 C191.62 152 97.24 152 0 152 C0 101.84 0 51.68 0 0 Z " fill="#FEFEFE" transform="translate(0,0)"/>
<path d="M0 0 C0.88042969 -0.01224609 1.76085937 -0.02449219 2.66796875 -0.03710938 C3.50972656 -0.03904297 4.35148437 -0.04097656 5.21875 -0.04296875 C6.37793945 -0.04913208 6.37793945 -0.04913208 7.56054688 -0.05541992 C9.5 0.1875 9.5 0.1875 11.5 2.1875 C11.6953125 4.3515625 11.6953125 4.3515625 11.625 6.8125 C11.60695313 7.62976563 11.58890625 8.44703125 11.5703125 9.2890625 C11.54710937 9.91554688 11.52390625 10.54203125 11.5 11.1875 C10.18 11.1875 8.86 11.1875 7.5 11.1875 C7.5 12.5075 7.5 13.8275 7.5 15.1875 C9.07587891 15.53361328 9.07587891 15.53361328 10.68359375 15.88671875 C17.95040869 17.55282389 24.44873113 19.06653463 30.703125 23.33203125 C32.49029651 24.3763917 32.49029651 24.3763917 34.61328125 23.953125 C36.70467289 23.25749759 36.70467289 23.25749759 38.4375 21.125 C40.5 19.1875 40.5 19.1875 42.8125 18.5 C47.18747571 19.61917983 49.92229544 22.55905957 52.5 26.1875 C52.6875 28.875 52.6875 28.875 51.5 31.1875 C50.448125 32.2084375 50.448125 32.2084375 49.375 33.25 C48.75625 33.889375 48.1375 34.52875 47.5 35.1875 C47.86905887 38.4748577 49.29130677 40.46773628 51.25 43.0625 C60.39709563 56.78314345 61.81356525 72.47560045 59.10009766 88.55761719 C57.08149825 97.35684792 52.81904434 104.97989609 47.5 112.1875 C47.03980469 112.83074219 46.57960938 113.47398438 46.10546875 114.13671875 C36.97638294 125.84404782 21.95074644 133.00308484 7.5 135.1875 C-9.77346792 136.81172161 -24.64332443 132.62518154 -38.4453125 121.8984375 C-50.49774337 111.55370801 -58.97572005 97.15009836 -60.5 81.1875 C-61.57172216 64.6140823 -57.55278091 49.07904339 -46.58789062 36.29125977 C-36.24987301 24.91331256 -23.80483343 17.41184672 -8.5 15.1875 C-8.17 13.8675 -7.84 12.5475 -7.5 11.1875 C-8.82 11.1875 -10.14 11.1875 -11.5 11.1875 C-11.5 7.8875 -11.5 4.5875 -11.5 1.1875 C-7.9639604 -0.5805198 -3.89428745 0.00285087 0 0 Z " fill="#F17106" transform="translate(150.5,7.8125)"/>
<path d="M0 0 C1.21918373 0.00602737 1.21918373 0.00602737 2.46299744 0.01217651 C3.39409081 0.01992599 3.39409081 0.01992599 4.34399414 0.02783203 C4.2119458 1.22867432 4.07989746 2.4295166 3.94384766 3.66674805 C1.07148694 29.43710274 1.07148694 29.43710274 10.30458069 52.6108551 C17.99285817 61.44553633 27.00852303 68.99582459 36.34399414 76.02783203 C30.25383778 83.58617392 22.45274298 88.0951788 12.74243164 89.77783203 C-2.01034872 91.31558112 -13.8465721 88.15075953 -25.65600586 79.02783203 C-34.42295203 71.05637436 -39.85493312 59.41955747 -40.97631836 47.67236328 C-41.41640128 34.22049538 -36.61816356 22.16193535 -27.40600586 12.27783203 C-19.91218107 5.27919391 -10.3852392 -0.06653837 0 0 Z " fill="#F16F02" transform="translate(145.656005859375,37.97216796875)"/>
<path d="M0 0 C8.82805024 6.92933433 14.96168864 17.63580999 17.07421875 28.6328125 C18.24662286 45.52696358 14.31130443 59.60520217 3.07421875 72.6328125 C-3.28323084 78.08640744 -9.90866118 82.1866944 -17.92578125 84.6328125 C-19.07433594 84.98666016 -19.07433594 84.98666016 -20.24609375 85.34765625 C-33.48161844 88.68929862 -45.69993339 85.68506252 -57.38671875 79.28515625 C-68.42120377 72.52512191 -74.86053915 62.42826662 -79.0625 50.37109375 C-81.83762814 38.35390992 -81.20142639 25.36746866 -74.92578125 14.6328125 C-74.4565625 13.81554687 -73.98734375 12.99828125 -73.50390625 12.15625 C-66.46777703 0.84548313 -56.59425608 -6.3555038 -43.92578125 -10.3671875 C-27.3268888 -13.59159616 -13.60179341 -9.65644562 0 0 Z M-62.92578125 4.6328125 C-63.55097656 5.21675781 -64.17617187 5.80070312 -64.8203125 6.40234375 C-73.70083661 15.59242861 -77.38267256 27.20114051 -77.265625 39.69921875 C-76.19743633 52.06319562 -70.76579674 63.33852168 -61.73828125 71.8828125 C-51.13588752 80.30728788 -39.25072906 83.59550942 -25.92578125 82.6328125 C-15.23846041 81.05881352 -6.61598346 77.21973958 0.07421875 68.6328125 C-0.85962646 67.92938721 -1.79347168 67.22596191 -2.75561523 66.5012207 C-30.60305341 44.98051549 -30.60305341 44.98051549 -32.9315033 28.67085266 C-33.99292506 16.66638824 -33.24056423 4.589396 -31.92578125 -7.3671875 C-33.35474124 -7.39021812 -34.78380963 -7.40658034 -36.21289062 -7.42016602 C-37.0086853 -7.43000015 -37.80447998 -7.43983429 -38.62438965 -7.44996643 C-47.80796089 -7.11964185 -56.42174708 -1.46232365 -62.92578125 4.6328125 Z " fill="#FEFBF8" transform="translate(181.92578125,45.3671875)"/>
</svg>
