<?xml version="1.0" encoding="UTF-8"?>
<svg version="1.1" xmlns="http://www.w3.org/2000/svg" width="153" height="152">
<path d="M0 0 C1.15145508 0.00193359 1.15145508 0.00193359 2.32617188 0.00390625 C6.18523854 0.06446702 8.16454896 0.19303264 11.4375 2.375 C11.73046875 4.9765625 11.73046875 4.9765625 11.625 8 C11.58439453 9.50433594 11.58439453 9.50433594 11.54296875 11.0390625 C11.50816406 11.80992188 11.47335938 12.58078125 11.4375 13.375 C10.4475 13.375 9.4575 13.375 8.4375 13.375 C8.4375 14.365 8.4375 15.355 8.4375 16.375 C9.36755859 16.46974609 9.36755859 16.46974609 10.31640625 16.56640625 C19.20703556 17.79582369 26.51552268 21.37659309 34.4375 25.375 C34.89640625 24.93027344 35.3553125 24.48554688 35.828125 24.02734375 C36.44171875 23.46144531 37.0553125 22.89554688 37.6875 22.3125 C38.29078125 21.74402344 38.8940625 21.17554687 39.515625 20.58984375 C41.4375 19.375 41.4375 19.375 43.44140625 19.48046875 C45.84987195 20.55980074 47.28690699 21.86007357 49.125 23.75 C50.02798828 24.65878906 50.02798828 24.65878906 50.94921875 25.5859375 C52.4375 27.375 52.4375 27.375 53.4375 30.375 C52.22265625 32.41796875 52.22265625 32.41796875 50.5 34.5625 C49.93410156 35.27792969 49.36820312 35.99335937 48.78515625 36.73046875 C48.34042969 37.27316406 47.89570312 37.81585938 47.4375 38.375 C47.88480469 38.93445312 48.33210938 39.49390625 48.79296875 40.0703125 C58.99334007 53.59831029 61.72745286 68.81298941 60.4375 85.375 C57.96214402 99.5198913 51.4530017 110.30603477 41.4375 120.375 C40.66019531 121.20451172 40.66019531 121.20451172 39.8671875 122.05078125 C35.98484532 125.82132824 31.33812358 128.17694967 26.5625 130.625 C25.57237915 131.13764404 25.57237915 131.13764404 24.56225586 131.66064453 C11.9356111 137.87260091 -4.24077731 138.63208492 -17.6875 134.6875 C-19.66300482 133.96180435 -21.62365736 133.19362245 -23.5625 132.375 C-24.42875 132.024375 -25.295 131.67375 -26.1875 131.3125 C-40.87851552 124.70154301 -51.65063812 112.22776961 -57.5625 97.375 C-60.12326775 90.36327943 -61.08336506 84.01284229 -61 76.5625 C-60.98755249 75.11738037 -60.98755249 75.11738037 -60.97485352 73.64306641 C-60.59421653 57.52627349 -53.97283242 44.27239413 -42.94140625 32.625 C-33.1670723 23.38030976 -21.8532307 18.09739644 -8.5625 16.375 C-8.5625 15.385 -8.5625 14.395 -8.5625 13.375 C-9.8825 13.045 -11.2025 12.715 -12.5625 12.375 C-13.04692243 5.10866352 -13.04692243 5.10866352 -11.08203125 2.1328125 C-7.42964463 -0.41536421 -4.3450295 -0.13933428 0 0 Z M-32.5625 40.375 C-33.17996094 40.87515625 -33.79742187 41.3753125 -34.43359375 41.890625 C-43.4393036 49.83330005 -47.73972365 62.09591113 -48.7734375 73.75390625 C-49.36914998 88.02809372 -44.06901085 100.57948884 -34.625 111.125 C-23.80198315 121.36854617 -10.4406028 124.90967337 4.07421875 124.6484375 C16.1976148 124.11825218 27.34307607 117.94576937 35.6875 109.3125 C46.34460467 96.54594781 48.71813732 82.53475868 47.4375 66.375 C46.61592496 62.36101907 45.3284597 58.99885156 43.4375 55.375 C42.99019531 54.50488281 42.54289062 53.63476562 42.08203125 52.73828125 C35.34577939 40.65637108 25.32961978 33.51861497 12.2890625 29.12890625 C-4.2601247 24.7535732 -19.89499696 29.29389453 -32.5625 40.375 Z " fill="#F27914" transform="translate(77.5625,6.625)"/>
<path d="M0 0 C-0.13204834 1.20084229 -0.26409668 2.40168457 -0.40014648 3.63891602 C-3.2725072 29.40927071 -3.2725072 29.40927071 5.96058655 52.58302307 C13.64886403 61.4177043 22.66452889 68.96799256 32 76 C26.01375541 83.70153693 17.68055329 88.45264604 8 90 C-6.27938287 91.35070297 -18.51559067 89.08786937 -30 80 C-37.83331355 73.07753686 -43.73025492 64.28026128 -46 54 C-46.62229839 43.70657257 -46.80427557 34.38405228 -42 25 C-41.57589844 24.14019531 -41.15179688 23.28039062 -40.71484375 22.39453125 C-34.61973284 11.17205684 -25.46951848 5.45694632 -13.9375 0.75 C-3.71830986 -1.85915493 -3.71830986 -1.85915493 0 0 Z " fill="#F17207" transform="translate(78,38)"/>
<path d="M0 0 C0.66 0.33 1.32 0.66 2 1 C-3.28 6.28 -8.56 11.56 -14 17 C-14 12.95607032 -12.51908749 11.99868382 -9.8125 9.0625 C-9.03519531 8.20785156 -8.25789063 7.35320313 -7.45703125 6.47265625 C-5.09786332 4.09848566 -2.65532732 2.0327639 0 0 Z " fill="#F59E55" transform="translate(42,33)"/>
<path d="M0 0 C0.66 0.33 1.32 0.66 2 1 C-2.29 5.29 -6.58 9.58 -11 14 C-11 10.30159372 -10.17133056 9.68584567 -7.75 7 C-7.14671875 6.319375 -6.5434375 5.63875 -5.921875 4.9375 C-4.06233388 3.06284066 -2.15205789 1.52358081 0 0 Z " fill="#F5A059" transform="translate(51,45)"/>
</svg>
