<?xml version="1.0" encoding="UTF-8"?>
<svg version="1.1" xmlns="http://www.w3.org/2000/svg" width="153" height="152">
<path d="M0 0 C50.49 0 100.98 0 153 0 C153 50.16 153 100.32 153 152 C102.51 152 52.02 152 0 152 C0 101.84 0 51.68 0 0 Z " fill="#F17106" transform="translate(0,0)"/>
<path d="M0 0 C50.49 0 100.98 0 153 0 C153 50.16 153 100.32 153 152 C102.51 152 52.02 152 0 152 C0 101.84 0 51.68 0 0 Z M66 9 C66 12.3 66 15.6 66 19 C67.32 19 68.64 19 70 19 C69.67 20.32 69.34 21.64 69 23 C68.21238281 23.13535156 67.42476562 23.27070313 66.61328125 23.41015625 C48.82931111 26.92485804 35.09250241 37.04146965 25 52 C16.85379849 66.42556517 14.62885499 82.51760972 18.83984375 98.578125 C24.89310196 116.43217953 35.40991336 129.03389699 52 138 C67.56166853 144.93550906 84.10699573 144.89467007 100 139 C116.180248 131.88285305 127.34432556 120.41125205 134 104 C136.70768903 96.70465469 137.54911183 90.00966976 137.5 82.25 C137.49141968 80.67001221 137.49141968 80.67001221 137.48266602 79.05810547 C137.20480281 66.89012959 134.04308846 57.63022979 126.2578125 48.0859375 C125 46 125 46 125.171875 43.84765625 C126 42 126 42 128.125 40.0625 C130.24221787 38.17062421 130.24221787 38.17062421 130.125 35.625 C128.52662087 31.8954487 126.26943464 29.3907246 123 27 C120.45540067 26.08308563 120.45540067 26.08308563 118 27 C117.175 27.845625 116.35 28.69125 115.5 29.5625 C114.2625 30.7690625 114.2625 30.7690625 113 32 C109.33493587 31.69256863 106.66634139 30.41419976 103.5 28.625 C97.59767057 25.54901261 91.49861467 24.25286772 85 23 C85 21.68 85 20.36 85 19 C86.32 19 87.64 19 89 19 C89.05399736 17.54207116 89.09279177 16.08357288 89.125 14.625 C89.14820312 13.81289062 89.17140625 13.00078125 89.1953125 12.1640625 C89.21370051 9.78657757 89.21370051 9.78657757 87 8 C84.9990311 7.70684064 84.9990311 7.70684064 82.71875 7.76953125 C81.87699219 7.77146484 81.03523438 7.77339844 80.16796875 7.77539062 C79.28753906 7.78763672 78.40710938 7.79988281 77.5 7.8125 C76.17935547 7.8134668 76.17935547 7.8134668 74.83203125 7.81445312 C70.26237826 7.6916189 70.26237826 7.6916189 66 9 Z " fill="#FEFEFD" transform="translate(0,0)"/>
<path d="M0 0 C1.21918373 0.00602737 1.21918373 0.00602737 2.46299744 0.01217651 C3.39409081 0.01992599 3.39409081 0.01992599 4.34399414 0.02783203 C4.2119458 1.22867432 4.07989746 2.4295166 3.94384766 3.66674805 C1.07148694 29.43710274 1.07148694 29.43710274 10.30458069 52.6108551 C17.99285817 61.44553633 27.00852303 68.99582459 36.34399414 76.02783203 C30.25383778 83.58617392 22.45274298 88.0951788 12.74243164 89.77783203 C-2.01034872 91.31558112 -13.8465721 88.15075953 -25.65600586 79.02783203 C-34.42295203 71.05637436 -39.85493312 59.41955747 -40.97631836 47.67236328 C-41.41640128 34.22049538 -36.61816356 22.16193535 -27.40600586 12.27783203 C-19.91218107 5.27919391 -10.3852392 -0.06653837 0 0 Z " fill="#F16F02" transform="translate(72.656005859375,37.97216796875)"/>
<path d="M0 0 C8.82805024 6.92933433 14.96168864 17.63580999 17.07421875 28.6328125 C18.24662286 45.52696358 14.31130443 59.60520217 3.07421875 72.6328125 C-3.28323084 78.08640744 -9.90866118 82.1866944 -17.92578125 84.6328125 C-19.07433594 84.98666016 -19.07433594 84.98666016 -20.24609375 85.34765625 C-33.48161844 88.68929862 -45.69993339 85.68506252 -57.38671875 79.28515625 C-68.42120377 72.52512191 -74.86053915 62.42826662 -79.0625 50.37109375 C-81.83762814 38.35390992 -81.20142639 25.36746866 -74.92578125 14.6328125 C-74.4565625 13.81554687 -73.98734375 12.99828125 -73.50390625 12.15625 C-66.46777703 0.84548313 -56.59425608 -6.3555038 -43.92578125 -10.3671875 C-27.3268888 -13.59159616 -13.60179341 -9.65644562 0 0 Z M-62.92578125 4.6328125 C-63.55097656 5.21675781 -64.17617187 5.80070312 -64.8203125 6.40234375 C-73.70083661 15.59242861 -77.38267256 27.20114051 -77.265625 39.69921875 C-76.19743633 52.06319562 -70.76579674 63.33852168 -61.73828125 71.8828125 C-51.13588752 80.30728788 -39.25072906 83.59550942 -25.92578125 82.6328125 C-15.23846041 81.05881352 -6.61598346 77.21973958 0.07421875 68.6328125 C-0.85962646 67.92938721 -1.79347168 67.22596191 -2.75561523 66.5012207 C-30.60305341 44.98051549 -30.60305341 44.98051549 -32.9315033 28.67085266 C-33.99292506 16.66638824 -33.24056423 4.589396 -31.92578125 -7.3671875 C-33.35474124 -7.39021812 -34.78380963 -7.40658034 -36.21289062 -7.42016602 C-37.0086853 -7.43000015 -37.80447998 -7.43983429 -38.62438965 -7.44996643 C-47.80796089 -7.11964185 -56.42174708 -1.46232365 -62.92578125 4.6328125 Z " fill="#FEFBF8" transform="translate(108.92578125,45.3671875)"/>
</svg>
